<?xml version="1.0" encoding="UTF-8"?>
<svg version="1.1" xmlns="http://www.w3.org/2000/svg" width="1121" height="233">
<path d="M0 0 C52.8 0 105.6 0 160 0 C160 1.98 160 3.96 160 6 C160.99 6.495 160.99 6.495 162 7 C162 6.34 162 5.68 162 5 C163.98 5.495 163.98 5.495 166 6 C166 6.99 166 7.98 166 9 C165.34 9 164.68 9 164 9 C164.0309375 10.11375 164.0309375 10.11375 164.0625 11.25 C164.00520432 13.77100994 163.62199344 15.58113664 163 18 C162.82227365 19.39446829 162.656603 20.7905018 162.5 22.1875 C162 26 162 26 161 27 C160.71756753 28.32491881 160.48697793 29.66102503 160.28125 31 C160.15363281 31.804375 160.02601563 32.60875 159.89453125 33.4375 C159.69923828 34.7059375 159.69923828 34.7059375 159.5 36 C159.24330542 37.66724399 158.98307543 39.33394878 158.71875 41 C158.54762695 42.11375 158.54762695 42.11375 158.37304688 43.25 C158 45 158 45 157 46 C155.52645652 46.09304018 154.04849409 46.11746265 152.57202148 46.11352539 C151.63112167 46.11344986 150.69022186 46.11337433 149.72080994 46.11329651 C148.69790359 46.10813522 147.67499725 46.10297394 146.62109375 46.09765625 C145.57929459 46.0962413 144.53749542 46.09482635 143.46412659 46.09336853 C140.12188906 46.0877508 136.77971743 46.0751953 133.4375 46.0625 C131.17773534 46.05748728 128.91796963 46.05292398 126.65820312 46.04882812 C121.10544609 46.03777561 115.55272775 46.02102024 110 46 C110.495 47.98 110.495 47.98 111 50 C110.34 50 109.68 50 109 50 C109.01160156 50.71027344 109.02320313 51.42054687 109.03515625 52.15234375 C109.04417969 53.07144531 109.05320312 53.99054688 109.0625 54.9375 C109.07410156 55.85402344 109.08570313 56.77054688 109.09765625 57.71484375 C109 60 109 60 108 61 C107.7746669 63.0279979 107.55232815 65.05674874 107.37890625 67.08984375 C107 69 107 69 105 71 C105.04125 71.825 105.0825 72.65 105.125 73.5 C105.00142037 76.96022965 104.44677079 78.53891959 103.0625 81.625 C100.60115712 87.33044498 100.21161959 92.84186994 100 99 C99.34 99 98.68 99 98 99 C98 102.63 98 106.26 98 110 C97.34 110 96.68 110 96 110 C96 112.64 96 115.28 96 118 C95.34 118 94.68 118 94 118 C94 120.97 94 123.94 94 127 C93.34 127 92.68 127 92 127 C92 129.64 92 132.28 92 135 C91.34 135 90.68 135 90 135 C90 137.97 90 140.94 90 144 C89.34 144 88.68 144 88 144 C88.02320312 144.83144531 88.04640625 145.66289062 88.0703125 146.51953125 C88.08835937 147.60621094 88.10640625 148.69289062 88.125 149.8125 C88.14820312 150.89144531 88.17140625 151.97039062 88.1953125 153.08203125 C88 156 88 156 86 159 C85.63661151 161.31660165 85.49737882 163.60240747 85.34375 165.94140625 C85 168 85 168 83 170 C79.99485779 170.24723816 79.99485779 170.24723816 76.08764648 170.24291992 C75.02160187 170.24576744 75.02160187 170.24576744 73.934021 170.24867249 C71.5796005 170.25238406 69.22548693 170.24167176 66.87109375 170.23046875 C65.23967017 170.22927716 63.6082459 170.22882374 61.9768219 170.2290802 C58.55620027 170.22751473 55.13568322 170.21921959 51.71508789 170.20581055 C47.32088375 170.18880716 42.92679448 170.18499654 38.5325613 170.18575573 C35.16379186 170.1854844 31.79504774 170.18000942 28.4262867 170.17275429 C26.80549372 170.16956262 25.18469786 170.16759906 23.5639019 170.16686058 C21.30353736 170.16470302 19.04329704 170.15597199 16.78295898 170.14526367 C15.49437485 170.14145187 14.20579071 170.13764008 12.87815857 170.13371277 C10 170 10 170 9 169 C8.95919217 167.00041636 8.95745644 164.99954746 9 163 C9.66 163 10.32 163 11 163 C11 160.36 11 157.72 11 155 C11.66 155 12.32 155 13 155 C13 152.03 13 149.06 13 146 C13.66 146 14.32 146 15 146 C15 142.7 15 139.4 15 136 C15.66 136 16.32 136 17 136 C17 133.03 17 130.06 17 127 C17.66 127 18.32 127 19 127 C19 123.04 19 119.08 19 115 C19.33 115 19.66 115 20 115 C20.12375 113.72125 20.2475 112.4425 20.375 111.125 C20.75 107.25 20.75 107.25 23 105 C23.53477885 103.08985088 23.53477885 103.08985088 23.81640625 100.90234375 C23.94080078 100.10119141 24.06519531 99.30003906 24.19335938 98.47460938 C24.31517578 97.63736328 24.43699219 96.80011719 24.5625 95.9375 C24.81025986 94.27941475 25.06138298 92.62182739 25.31640625 90.96484375 C25.42412354 90.2287085 25.53184082 89.49257324 25.64282227 88.73413086 C26 87 26 87 27 86 C27.23075082 84.65252916 27.41153063 83.29622435 27.5625 81.9375 C27.706875 80.638125 27.85125 79.33875 28 78 C28.66 78 29.32 78 30 78 C30 75.03 30 72.06 30 69 C30.66 69 31.32 69 32 69 C32 65.04 32 61.08 32 57 C32.66 57 33.32 57 34 57 C34 54.03 34 51.06 34 48 C34.66 47.67 35.32 47.34 36 47 C25.44 46.67 14.88 46.34 4 46 C4 45.01 4 44.02 4 43 C0.04 42.67 -3.92 42.34 -8 42 C-8.33108175 35.48872556 -7.4396643 30.0194024 -5.8671875 23.70703125 C-4.85710866 19.38917171 -4.0666005 15.05608221 -3.3125 10.6875 C-3.18125732 9.92759766 -3.05001465 9.16769531 -2.91479492 8.38476562 C-2.60712119 6.59031175 -2.30314567 4.79522437 -2 3 C-1.34 3 -0.68 3 0 3 C0 2.01 0 1.02 0 0 Z " fill="#010FB2" transform="translate(25,32)"/>
<path d="M0 0 C1.78204079 0.00333092 1.78204079 0.00333092 3.6000824 0.00672913 C4.58053528 0.00651009 4.58053528 0.00651009 5.58079529 0.00628662 C7.75058766 0.00698569 9.92029517 0.01477774 12.09007263 0.02259827 C13.59079949 0.02446247 15.09152696 0.02588636 16.59225464 0.02688599 C20.54934865 0.03071099 24.50640616 0.04054112 28.46348572 0.05158997 C32.49851488 0.06180446 36.53354991 0.06638369 40.56858826 0.07142639 C48.49113108 0.08216341 56.41364419 0.09923962 64.33616638 0.12025452 C64.33616638 1.77025452 64.33616638 3.42025452 64.33616638 5.12025452 C69.28616638 4.62525452 69.28616638 4.62525452 74.33616638 4.12025452 C74.00616638 7.42025452 73.67616638 10.72025452 73.33616638 14.12025452 C72.67616638 14.12025452 72.01616638 14.12025452 71.33616638 14.12025452 C71.33616638 16.76025452 71.33616638 19.40025452 71.33616638 22.12025452 C70.34616638 22.12025452 69.35616638 22.12025452 68.33616638 22.12025452 C68.54241638 22.96587952 68.74866638 23.81150452 68.96116638 24.68275452 C69.4026425 28.72961893 68.49274202 31.22739017 67.33616638 35.12025452 C66.65025017 38.39230458 66.01175883 41.66903308 65.39280701 44.95423889 C64.43538128 49.92182471 64.43538128 49.92182471 63.33616638 52.12025452 C63.11148808 53.65694317 62.92819833 55.19993505 62.77366638 56.74525452 C62.68987732 57.56252014 62.60608826 58.37978577 62.51976013 59.22181702 C62.45917419 59.84830139 62.39858826 60.47478577 62.33616638 61.12025452 C61.67616638 61.12025452 61.01616638 61.12025452 60.33616638 61.12025452 C60.33616638 63.76025452 60.33616638 66.40025452 60.33616638 69.12025452 C59.67616638 69.12025452 59.01616638 69.12025452 58.33616638 69.12025452 C58.37741638 70.06900452 58.41866638 71.01775452 58.46116638 71.99525452 C58.48101146 76.82753109 57.39390834 81.42652456 56.33616638 86.12025452 C55.67616638 86.12025452 55.01616638 86.12025452 54.33616638 86.12025452 C54.35936951 86.96330139 54.38257263 87.80634827 54.40647888 88.67494202 C54.42452576 89.77064514 54.44257263 90.86634827 54.46116638 91.99525452 C54.48436951 93.08580139 54.50757263 94.17634827 54.53147888 95.29994202 C54.33616638 98.12025452 54.33616638 98.12025452 52.33616638 100.12025452 C51.71024187 102.83642236 51.17548722 105.50197118 50.71116638 108.24525452 C50.57710388 108.99935608 50.44304138 109.75345764 50.30491638 110.53041077 C49.97493409 112.3924537 49.65462565 114.25620626 49.33616638 116.12025452 C48.67616638 116.12025452 48.01616638 116.12025452 47.33616638 116.12025452 C47.33616638 118.43025452 47.33616638 120.74025452 47.33616638 123.12025452 C46.67616638 123.12025452 46.01616638 123.12025452 45.33616638 123.12025452 C45.33616638 125.10025452 45.33616638 127.08025452 45.33616638 129.12025452 C44.67616638 129.12025452 44.01616638 129.12025452 43.33616638 129.12025452 C43.33616638 130.44025452 43.33616638 131.76025452 43.33616638 133.12025452 C42.67616638 133.12025452 42.01616638 133.12025452 41.33616638 133.12025452 C41.33616638 133.78025452 41.33616638 134.44025452 41.33616638 135.12025452 C41.99616638 135.12025452 42.65616638 135.12025452 43.33616638 135.12025452 C43.33616638 135.78025452 43.33616638 136.44025452 43.33616638 137.12025452 C42.67616638 137.78025452 42.01616638 138.44025452 41.33616638 139.12025452 C41.00616638 140.11025452 40.67616638 141.10025452 40.33616638 142.12025452 C39.67616638 142.12025452 39.01616638 142.12025452 38.33616638 142.12025452 C38.33616638 142.78025452 38.33616638 143.44025452 38.33616638 144.12025452 C37.67616638 144.12025452 37.01616638 144.12025452 36.33616638 144.12025452 C35.96491638 145.29587952 35.96491638 145.29587952 35.58616638 146.49525452 C34.18227539 149.4434256 33.32940901 150.02273222 30.33616638 151.12025452 C30.33616638 151.78025452 30.33616638 152.44025452 30.33616638 153.12025452 C29.67616638 153.12025452 29.01616638 153.12025452 28.33616638 153.12025452 C28.33616638 153.78025452 28.33616638 154.44025452 28.33616638 155.12025452 C27.34616638 155.12025452 26.35616638 155.12025452 25.33616638 155.12025452 C25.33616638 155.78025452 25.33616638 156.44025452 25.33616638 157.12025452 C24.34616638 157.12025452 23.35616638 157.12025452 22.33616638 157.12025452 C22.33616638 157.78025452 22.33616638 158.44025452 22.33616638 159.12025452 C21.67616638 159.12025452 21.01616638 159.12025452 20.33616638 159.12025452 C20.33616638 159.78025452 20.33616638 160.44025452 20.33616638 161.12025452 C19.01616638 161.12025452 17.69616638 161.12025452 16.33616638 161.12025452 C16.00616638 161.78025452 15.67616638 162.44025452 15.33616638 163.12025452 C15.33616638 162.46025452 15.33616638 161.80025452 15.33616638 161.12025452 C14.01616638 161.12025452 12.69616638 161.12025452 11.33616638 161.12025452 C11.33616638 161.78025452 11.33616638 162.44025452 11.33616638 163.12025452 C9.68616638 163.12025452 8.03616638 163.12025452 6.33616638 163.12025452 C6.33616638 163.78025452 6.33616638 164.44025452 6.33616638 165.12025452 C1.59549599 166.63323443 -2.77875329 167.4345347 -7.74586487 167.77650452 C-9.89820813 167.97378094 -9.89820813 167.97378094 -11.66383362 170.12025452 C-14.16871643 170.3742218 -14.16871643 170.3742218 -17.36695862 170.37904358 C-18.56159729 170.3853479 -19.75623596 170.39165222 -20.98707581 170.39814758 C-22.28290588 170.39409912 -23.57873596 170.39005066 -24.91383362 170.38587952 C-26.25139944 170.3872263 -27.58896479 170.38916694 -28.92652893 170.39167786 C-31.73093828 170.39462852 -34.5352203 170.39033345 -37.33961487 170.3809967 C-40.93788284 170.36960205 -44.53585248 170.37616185 -48.1341095 170.38814163 C-50.8964412 170.39536188 -53.65870195 170.39307158 -56.42103577 170.38788605 C-58.39422295 170.38589926 -60.36741287 170.39198293 -62.34059143 170.39814758 C-63.5352301 170.39184326 -64.72986877 170.38553894 -65.96070862 170.37904358 C-67.01612854 170.37745239 -68.07154846 170.37586121 -69.15895081 170.3742218 C-71.66383362 170.12025452 -71.66383362 170.12025452 -73.66383362 168.12025452 C-75.86634354 167.66019106 -75.86634354 167.66019106 -78.28883362 167.49525452 C-79.10609924 167.42048889 -79.92336487 167.34572327 -80.76539612 167.26869202 C-81.70512268 167.19521545 -81.70512268 167.19521545 -82.66383362 167.12025452 C-82.99383362 166.13025452 -83.32383362 165.14025452 -83.66383362 164.12025452 C-85.97383362 163.79025452 -88.28383362 163.46025452 -90.66383362 163.12025452 C-90.92739422 156.23839448 -90.50855533 149.78548991 -88.66383362 143.12025452 C-88.33383362 142.79025452 -88.00383362 142.46025452 -87.66383362 142.12025452 C-87.43019481 140.27133505 -87.25079727 138.4153742 -87.10133362 136.55775452 C-87.01754456 135.54584045 -86.93375549 134.53392639 -86.84742737 133.49134827 C-86.78684143 132.70888733 -86.72625549 131.92642639 -86.66383362 131.12025452 C-86.00383362 131.12025452 -85.34383362 131.12025452 -84.66383362 131.12025452 C-84.66383362 128.48025452 -84.66383362 125.84025452 -84.66383362 123.12025452 C-82.0387656 123.09334607 -79.41397188 123.07346047 -76.78883362 123.05775452 C-76.04246643 123.04937561 -75.29609924 123.0409967 -74.52711487 123.03236389 C-68.89039612 123.00697327 -68.89039612 123.00697327 -66.66383362 124.12025452 C-65.30051345 124.21491712 -63.93277845 124.25097627 -62.56617737 124.25306702 C-61.36444885 124.25500061 -61.36444885 124.25500061 -60.13844299 124.25697327 C-59.3011969 124.25310608 -58.46395081 124.24923889 -57.60133362 124.24525452 C-56.76022034 124.2491217 -55.91910706 124.25298889 -55.05250549 124.25697327 C-51.03962492 124.65629336 -51.03962492 124.65629336 -47.66383362 123.12025452 C-45.33421919 122.7618523 -43.00018019 122.43176739 -40.66383362 122.12025452 C-38.99449079 121.80059312 -37.32651192 121.47294385 -35.66383362 121.12025452 C-35.66383362 120.13025452 -35.66383362 119.14025452 -35.66383362 118.12025452 C-34.67383362 118.12025452 -33.68383362 118.12025452 -32.66383362 118.12025452 C-32.66383362 117.46025452 -32.66383362 116.80025452 -32.66383362 116.12025452 C-32.00383362 116.12025452 -31.34383362 116.12025452 -30.66383362 116.12025452 C-25.34629407 99.39354831 -25.34629407 99.39354831 -22.66383362 82.12025452 C-22.00383362 82.12025452 -21.34383362 82.12025452 -20.66383362 82.12025452 C-20.66383362 79.48025452 -20.66383362 76.84025452 -20.66383362 74.12025452 C-20.00383362 74.12025452 -19.34383362 74.12025452 -18.66383362 74.12025452 C-18.66383362 71.15025452 -18.66383362 68.18025452 -18.66383362 65.12025452 C-18.00383362 65.12025452 -17.34383362 65.12025452 -16.66383362 65.12025452 C-16.66383362 62.15025452 -16.66383362 59.18025452 -16.66383362 56.12025452 C-16.33383362 56.12025452 -16.00383362 56.12025452 -15.66383362 56.12025452 C-15.33383362 52.16025452 -15.00383362 48.20025452 -14.66383362 44.12025452 C-13.67383362 44.12025452 -12.68383362 44.12025452 -11.66383362 44.12025452 C-11.66383362 41.15025452 -11.66383362 38.18025452 -11.66383362 35.12025452 C-11.00383362 35.12025452 -10.34383362 35.12025452 -9.66383362 35.12025452 C-9.66383362 32.48025452 -9.66383362 29.84025452 -9.66383362 27.12025452 C-9.00383362 27.12025452 -8.34383362 27.12025452 -7.66383362 27.12025452 C-7.66383362 24.15025452 -7.66383362 21.18025452 -7.66383362 18.12025452 C-7.00383362 18.12025452 -6.34383362 18.12025452 -5.66383362 18.12025452 C-5.68445862 16.82087952 -5.70508362 15.52150452 -5.72633362 14.18275452 C-5.74782816 12.82859818 -5.7353156 11.47269369 -5.66383362 10.12025452 C-5.33383362 9.79025452 -5.00383362 9.46025452 -4.66383362 9.12025452 C-4.45779277 7.79243573 -4.29753772 6.45729557 -4.16383362 5.12025452 C-3.66836843 0.16560264 -3.66836843 0.16560264 0 0 Z " fill="#6D0F0F" transform="translate(220.66383361816406,31.879745483398438)"/>
<path d="M0 0 C10.23 0 20.46 0 31 0 C34.37389068 8.99704181 34.37389068 8.99704181 35.50219727 12.79199219 C35.88257896 14.06305817 35.88257896 14.06305817 36.27064514 15.35980225 C36.53324631 16.24653625 36.79584747 17.13327026 37.06640625 18.046875 C37.63993827 19.96225027 38.21350706 21.87761453 38.78710938 23.79296875 C39.67909893 26.78368476 40.56986557 29.77476035 41.4597168 32.76611328 C42.32554952 35.67312587 43.19578024 38.57879502 44.06640625 41.484375 C44.33103165 42.37920593 44.59565704 43.27403687 44.86830139 44.19598389 C45.11873703 45.03075256 45.36917267 45.86552124 45.62719727 46.72558594 C45.84465103 47.45646423 46.0621048 48.18734253 46.28614807 48.94036865 C47.02454191 51.07080921 47.94886713 53.0075968 49 55 C49.16064438 54.34045319 49.32128876 53.68090637 49.48680115 53.00137329 C51.15473763 46.15548251 52.82601732 39.31041422 54.49926758 32.46582031 C55.12382963 29.9090651 55.74753019 27.35209929 56.37036133 24.79492188 C57.26418903 21.12574848 58.16108164 17.45733615 59.05859375 13.7890625 C59.3377916 12.64007477 59.61698944 11.49108704 59.90464783 10.30728149 C60.16484207 9.2463327 60.42503632 8.18538391 60.69311523 7.09228516 C60.92183823 6.15518707 61.15056122 5.21808899 61.38621521 4.25259399 C62 2 62 2 63 0 C72.9 0 82.8 0 93 0 C92.29035185 4.25788888 91.58384846 7.58443376 90.19335938 11.56445312 C89.63642395 13.16903381 89.63642395 13.16903381 89.0682373 14.80603027 C88.66415649 15.95285278 88.26007568 17.09967529 87.84375 18.28125 C87.42258911 19.48575806 87.00142822 20.69026611 86.56750488 21.93127441 C85.67292341 24.48772464 84.77472725 27.04286864 83.87402344 29.59716797 C82.745282 32.79919976 81.62602145 36.00444612 80.50939751 39.21072006 C54.92856442 112.58686936 54.92856442 112.58686936 29.09375 125.625 C23.97306631 127.90085942 19.65407404 129 14 129 C13.128281 125.77531199 12.28078746 122.54472911 11.4375 119.3125 C11.19064453 118.40048828 10.94378906 117.48847656 10.68945312 116.54882812 C10.46064453 115.66259766 10.23183594 114.77636719 9.99609375 113.86328125 C9.78138428 113.05157471 9.5666748 112.23986816 9.34545898 111.40356445 C8.94641367 108.6271679 9.15860186 106.67185323 10 104 C12.51171875 102.59375 12.51171875 102.59375 15.6875 101.5 C23.1043419 98.6757933 28.37040749 95.40436871 32 88 C31.65805777 82.17440563 30.27293283 77.42406254 28.04077148 72.07104492 C27.73826477 71.32367065 27.43575806 70.57629639 27.12408447 69.80627441 C26.13184635 67.36067018 25.12640066 64.92072611 24.12109375 62.48046875 C23.42650735 60.77313211 22.73292425 59.06538699 22.04029846 57.35725403 C20.22193349 52.87859398 18.39302371 48.40432643 16.56091309 43.93127441 C13.62288 36.75555241 10.69705779 29.57488339 7.77870369 22.39113808 C6.75755374 19.88360981 5.72950076 17.37899189 4.70079041 14.8745575 C4.07688992 13.34380033 3.45322484 11.8129472 2.82983398 10.28198242 C2.54153214 9.58532974 2.25323029 8.88867706 1.95619202 8.1709137 C0.78511175 5.27947255 0 3.15246288 0 0 Z " fill="#FFFFFF" transform="translate(921,82)"/>
<path d="M0 0 C9.72561927 10.00349411 10.63041098 24.09816299 10.69921875 37.328125 C10.71716995 38.62071228 10.73512115 39.91329956 10.75361633 41.24505615 C10.80057992 44.63803166 10.83073239 48.0309433 10.85705566 51.4241333 C10.88713634 54.90397684 10.93341538 58.38360532 10.97851562 61.86328125 C11.06543121 68.65886712 11.12583373 75.45395167 11.1875 82.25 C2.6075 82.25 -5.9725 82.25 -14.8125 82.25 C-15.1425 80.27 -15.4725 78.29 -15.8125 76.25 C-16.45316406 76.65992188 -17.09382813 77.06984375 -17.75390625 77.4921875 C-18.61886719 78.03101563 -19.48382812 78.56984375 -20.375 79.125 C-21.22191406 79.65867187 -22.06882812 80.19234375 -22.94140625 80.7421875 C-31.43320265 85.20182479 -42.25957174 85.80005527 -51.5703125 83.59765625 C-58.77386253 80.67356713 -65.01794423 75.7458644 -68.3125 68.625 C-70.80736959 61.3510691 -71.09271023 53.12354944 -68.5625 45.8125 C-63.3970878 35.29719659 -56.66933419 30.48892598 -45.8828125 26.28515625 C-36.90064807 23.25681837 -28.23138671 22.98046111 -18.8125 23.25 C-19.84166209 18.34547427 -19.84166209 18.34547427 -22.6875 14.375 C-31.50242547 9.70827475 -41.67925663 12.44641568 -50.6484375 15.1796875 C-53.41539151 16.11566947 -56.11605183 17.12900469 -58.8125 18.25 C-59.67728781 15.48208055 -60.52961674 12.71134374 -61.375 9.9375 C-61.62185547 9.15181641 -61.86871094 8.36613281 -62.12304688 7.55664062 C-62.35185547 6.79931641 -62.58066406 6.04199219 -62.81640625 5.26171875 C-63.03111572 4.56522217 -63.2458252 3.86872559 -63.46704102 3.15112305 C-63.8125 1.25 -63.8125 1.25 -62.8125 -1.75 C-42.62685347 -11.58029318 -19.09358126 -11.88045056 0 0 Z M-40.8125 48.25 C-42.4145886 51.45417721 -42.30535215 54.77339432 -41.8125 58.25 C-39.6880173 61.69312714 -38.66397359 62.96617547 -34.8125 64.25 C-29.08530804 64.79030113 -26.25367806 63.9016353 -21.8125 60.25 C-18.91760449 57.31846024 -17.87838497 55.84889441 -17.421875 51.69921875 C-17.46828125 50.45785156 -17.5146875 49.21648437 -17.5625 47.9375 C-17.59859375 46.68324219 -17.6346875 45.42898437 -17.671875 44.13671875 C-17.71828125 43.18410156 -17.7646875 42.23148438 -17.8125 41.25 C-26.61907596 40.83063924 -34.22990435 41.87311047 -40.8125 48.25 Z " fill="#FFFFFF" transform="translate(1087.8125,88.75)"/>
<path d="M0 0 C6.76170481 6.11332216 9.90674262 15.53665206 10.52601624 24.44723511 C10.63899178 28.13213962 10.69362894 31.81350897 10.7265625 35.5 C10.74530361 36.85621276 10.76487914 38.21241422 10.7852478 39.56860352 C10.83626478 43.11286717 10.87605181 46.65716851 10.91339111 50.20159912 C10.95362327 53.82850226 11.00462727 57.45525281 11.0546875 61.08203125 C11.15108554 68.17957538 11.23560414 75.27721558 11.3125 82.375 C7.16668113 82.40386751 3.02088784 82.42175327 -1.125 82.4375 C-2.30900391 82.44587891 -3.49300781 82.45425781 -4.71289062 82.46289062 C-5.83759766 82.46611328 -6.96230469 82.46933594 -8.12109375 82.47265625 C-9.68428345 82.48051147 -9.68428345 82.48051147 -11.27905273 82.48852539 C-13.6875 82.375 -13.6875 82.375 -14.6875 81.375 C-14.72830783 79.37541636 -14.73004356 77.37454746 -14.6875 75.375 C-15.40035156 75.85710937 -16.11320313 76.33921875 -16.84765625 76.8359375 C-18.28431641 77.78339844 -18.28431641 77.78339844 -19.75 78.75 C-20.68972656 79.37648438 -21.62945313 80.00296875 -22.59765625 80.6484375 C-31.0374881 85.36450031 -42.11622977 85.99254344 -51.48046875 83.6875 C-59.06065398 80.5562703 -64.52472463 75.74483536 -67.9609375 68.3046875 C-71.18953353 59.72981418 -70.30639867 51.18085523 -66.87109375 42.8125 C-62.85259221 34.53677405 -55.76253044 30.25133168 -47.359375 27.14453125 C-39.56371207 24.67946432 -32.51465227 23.23512121 -24.3125 23.3125 C-22.44464844 23.32603516 -22.44464844 23.32603516 -20.5390625 23.33984375 C-19.12753906 23.35724609 -19.12753906 23.35724609 -17.6875 23.375 C-19.85709541 17.33801521 -19.85709541 17.33801521 -24.6875 13.375 C-34.41872168 10.43057456 -43.41872387 13.11486565 -52.6875 16.375 C-54.68680712 17.04374171 -56.68660455 17.71102572 -58.6875 18.375 C-59.55228781 15.60708055 -60.40461674 12.83634374 -61.25 10.0625 C-61.49685547 9.27681641 -61.74371094 8.49113281 -61.99804688 7.68164062 C-62.22685547 6.92431641 -62.45566406 6.16699219 -62.69140625 5.38671875 C-62.90611572 4.69022217 -63.1208252 3.99372559 -63.34204102 3.27612305 C-63.6875 1.375 -63.6875 1.375 -62.6875 -1.625 C-43.95109416 -10.86975662 -17.28479433 -13.15874665 0 0 Z M-38.6875 46.9375 C-41.34153388 50.17210379 -41.89089776 51.64562938 -41.625 55.75 C-41.15005502 59.48342829 -40.8901399 60.17718486 -38.0625 62.9375 C-33.67599608 64.80582575 -30.34806303 65.40082533 -25.79296875 63.64453125 C-21.7888336 61.57924049 -19.52571184 59.45991519 -17.6875 55.375 C-16.71353529 52.23144494 -16.5818038 49.40791121 -16.625 46.125 C-16.63402344 45.23296875 -16.64304687 44.3409375 -16.65234375 43.421875 C-16.66394531 42.74640625 -16.67554688 42.0709375 -16.6875 41.375 C-25.00447868 40.90619327 -32.15832312 41.36049475 -38.6875 46.9375 Z " fill="#FFFFFF" transform="translate(697.6875,88.625)"/>
<path d="M0 0 C6.84222821 6.84222821 10.04659286 15.37754574 10.18945312 24.96704102 C10.20617065 25.92896866 10.22288818 26.8908963 10.2401123 27.88197327 C10.25368774 28.91221115 10.26726318 29.94244904 10.28125 31.00390625 C10.29965942 32.07817368 10.31806885 33.1524411 10.33703613 34.25926208 C10.39566943 37.69362004 10.44846969 41.1280286 10.5 44.5625 C10.55171359 47.97197221 10.60487877 51.38138626 10.66296387 54.79075623 C10.6990372 56.90891037 10.73158598 59.02712876 10.7598877 61.145401 C10.87922848 68.16979226 11.4135803 74.96296356 12 82 C3.42 82 -5.16 82 -14 82 C-14.66 79.69 -15.32 77.38 -16 75 C-16.78375 75.7425 -17.5675 76.485 -18.375 77.25 C-26.83126736 84.10484953 -36.38957107 85.26466977 -46.95068359 84.31347656 C-54.01333914 83.23312754 -60.05388694 79.67481199 -64.5625 74.1875 C-69.70960168 66.21632483 -71.23258894 58.22530403 -69.25 48.9375 C-66.63252929 39.8030614 -60.9419036 33.65826154 -52.90625 28.7109375 C-41.94250411 23.35179306 -29.98330654 22.50828377 -18 23 C-20.18145281 16.98166694 -20.18145281 16.98166694 -25 13 C-36.20637122 9.26454293 -47.60240682 13.7490503 -58 18 C-63.74853824 3.10606002 -63.74853824 3.10606002 -62 -2 C-59.99609375 -3.29296875 -59.99609375 -3.29296875 -57.4375 -4.1875 C-56.53 -4.5071875 -55.6225 -4.826875 -54.6875 -5.15625 C-37.30406936 -10.61383869 -14.64784136 -12.76991298 0 0 Z M-39 46.25 C-41.49117683 49.67536814 -42 51.77288305 -42 56 C-40.84949961 59.20929055 -39.94463303 61.25778834 -37.25 63.375 C-32.77436859 64.61823095 -29.15429714 64.43003227 -24.8125 62.8125 C-20.77406657 60.20995401 -18.51960221 57.55880664 -17 53 C-16.931009 50.93854893 -16.91532273 48.87498599 -16.9375 46.8125 C-16.94652344 45.72582031 -16.95554687 44.63914063 -16.96484375 43.51953125 C-16.97644531 42.68808594 -16.98804688 41.85664063 -17 41 C-25.2993712 40.53218576 -32.20282292 41.15211719 -39 46.25 Z " fill="#FFFFFF" transform="translate(902,89)"/>
<path d="M0 0 C31.02 0 62.04 0 94 0 C94 7.92 94 15.84 94 24 C83.11 24 72.22 24 61 24 C61 56.34 61 88.68 61 122 C51.43 122 41.86 122 32 122 C32 89.66 32 57.32 32 24 C21.44 24 10.88 24 0 24 C0 16.08 0 8.16 0 0 Z " fill="#FFFFFF" transform="translate(344,49)"/>
<path d="M0 0 C9.24 0 18.48 0 28 0 C28.09084286 11.19743129 28.16402625 22.39461256 28.20724869 33.59233093 C28.22800698 38.79346554 28.25610632 43.9943321 28.30175781 49.1953125 C28.34563932 54.2268838 28.36922519 59.25819942 28.37950897 64.28994751 C28.38682522 66.19703183 28.40110884 68.10410426 28.42292023 70.01107788 C28.59440733 85.64471862 28.25260538 101.86756128 17 114 C8.99605505 122.10972396 -1.28551068 124.16385971 -12.27685547 124.36572266 C-20.45754721 124.39179767 -28.01362351 123.87495912 -36 122 C-35.45423097 113.89963866 -34.45852964 105.98651182 -33 98 C-32.02160156 98.16757813 -31.04320312 98.33515625 -30.03515625 98.5078125 C-17.53412299 100.57330396 -17.53412299 100.57330396 -6.125 96 C0.54910702 86.57773127 -0.52634082 74.89540939 -0.48828125 63.8671875 C-0.4714122 62.02058739 -0.453259 60.17399861 -0.43388367 58.3274231 C-0.38661912 53.49755392 -0.35665803 48.66773069 -0.33044434 43.83770752 C-0.3005193 38.89692109 -0.25403033 33.95629261 -0.20898438 29.015625 C-0.12321936 19.34381499 -0.05728895 9.67202064 0 0 Z " fill="#FFFFFF" transform="translate(790,49)"/>
<path d="M0 0 C0 8.25 0 16.5 0 25 C6.6 25 13.2 25 20 25 C20 31.93 20 38.86 20 46 C13.4 46 6.8 46 0 46 C0.09727079 50.99920675 0.20020727 55.9976485 0.31738281 60.99633789 C0.35551129 62.69450924 0.39039146 64.39275692 0.421875 66.09106445 C0.46787822 68.54145467 0.52581151 70.99132667 0.5859375 73.44140625 C0.59748871 74.19273331 0.60903992 74.94406036 0.62094116 75.71815491 C0.76974467 81.11184827 0.94178129 86.94178129 4.9375 90.9375 C9.19179119 92.60091662 9.19179119 92.60091662 19 92 C19 99.26 19 106.52 19 114 C6.02652152 117.24336962 -5.97728288 117.93938792 -17.79296875 110.9375 C-23.2946224 107.02521296 -25.64465419 100.3928502 -27 94 C-27.08449436 92.38164515 -27.11779 90.7602019 -27.11352539 89.13964844 C-27.11344986 88.17895447 -27.11337433 87.2182605 -27.11329651 86.22845459 C-27.10813522 85.19915833 -27.10297394 84.16986206 -27.09765625 83.109375 C-27.0962413 82.04962463 -27.09482635 80.98987427 -27.09336853 79.89801025 C-27.08777382 76.51531138 -27.07522225 73.13267885 -27.0625 69.75 C-27.05748432 67.45573012 -27.05292153 65.16145921 -27.04882812 62.8671875 C-27.03780611 57.24476613 -27.02054507 51.62239431 -27 46 C-30.96 46 -34.92 46 -39 46 C-39 39.07 -39 32.14 -39 25 C-35.04 25 -31.08 25 -27 25 C-27 18.73 -27 12.46 -27 6 C-22.87564751 4.99726307 -18.75057392 3.99768781 -14.625 3 C-13.449375 2.71382812 -12.27375 2.42765625 -11.0625 2.1328125 C-9.38027344 1.72675781 -9.38027344 1.72675781 -7.6640625 1.3125 C-6.10872803 0.93544922 -6.10872803 0.93544922 -4.52197266 0.55078125 C-2 0 -2 0 0 0 Z " fill="#FFFFFF" transform="translate(599,57)"/>
<path d="M0 0 C0 8.58 0 17.16 0 26 C-2.330625 26.0825 -4.66125 26.165 -7.0625 26.25 C-13.04814343 26.6007764 -17.375736 26.99230453 -22 31 C-26.47045181 37.21437542 -26.60088311 43.51252686 -26.609375 50.9375 C-26.62591125 52.05817871 -26.64244751 53.17885742 -26.65948486 54.33349609 C-26.70780621 57.88905404 -26.72930147 61.44418473 -26.75 65 C-26.7781728 67.42059423 -26.80810205 69.84116869 -26.83984375 72.26171875 C-26.91684589 78.17467274 -26.95751649 84.08629571 -27 90 C-36.24 90 -45.48 90 -55 90 C-55.33 60.63 -55.66 31.26 -56 1 C-48.08 1 -40.16 1 -32 1 C-30.18884044 2.81115956 -30.61800552 5.61278227 -30.4375 8.0625 C-30.31181641 9.71958984 -30.31181641 9.71958984 -30.18359375 11.41015625 C-30.12300781 12.26480469 -30.06242188 13.11945313 -30 14 C-29.64808594 13.48050781 -29.29617188 12.96101563 -28.93359375 12.42578125 C-22.82209556 3.7930906 -11.31711751 -5.65855876 0 0 Z " fill="#FFFFFF" transform="translate(551,81)"/>
<path d="M0 0 C22.11 0 44.22 0 67 0 C67 1.65 67 3.3 67 5 C71.95 4.505 71.95 4.505 77 4 C76.67 7.3 76.34 10.6 76 14 C75.34 14 74.68 14 74 14 C74 16.64 74 19.28 74 22 C73.01 22 72.02 22 71 22 C71.20625 22.845625 71.4125 23.69125 71.625 24.5625 C72.06647612 28.60936442 71.15657564 31.10713565 70 35 C69.31408379 38.27205006 68.67559244 41.54877856 68.05664062 44.83398438 C67.0992149 49.8015702 67.0992149 49.8015702 66 52 C65.77532169 53.53668865 65.59203195 55.07968054 65.4375 56.625 C65.35371094 57.44226563 65.26992188 58.25953125 65.18359375 59.1015625 C65.12300781 59.72804687 65.06242188 60.35453125 65 61 C64.34 61 63.68 61 63 61 C63 63.64 63 66.28 63 69 C62.34 69 61.68 69 61 69 C61.04125 69.94875 61.0825 70.8975 61.125 71.875 C61.14484508 76.70727658 60.05774196 81.30627004 59 86 C58.34 86 57.68 86 57 86 C57.02320313 86.84304687 57.04640625 87.68609375 57.0703125 88.5546875 C57.08835937 89.65039062 57.10640625 90.74609375 57.125 91.875 C57.14820313 92.96554688 57.17140625 94.05609375 57.1953125 95.1796875 C57 98 57 98 55 100 C54.37407549 102.71616785 53.83932084 105.38171667 53.375 108.125 C53.2409375 108.87910156 53.106875 109.63320312 52.96875 110.41015625 C52.63876771 112.27219918 52.31845927 114.13595175 52 116 C51.34 116 50.68 116 50 116 C50 118.31 50 120.62 50 123 C49.34 123 48.68 123 48 123 C48 124.98 48 126.96 48 129 C47.34 129 46.68 129 46 129 C46 130.32 46 131.64 46 133 C45.34 133 44.68 133 44 133 C44 133.66 44 134.32 44 135 C44.66 135 45.32 135 46 135 C46 135.66 46 136.32 46 137 C45.34 137.66 44.68 138.32 44 139 C43.67 139.99 43.34 140.98 43 142 C42.34 142 41.68 142 41 142 C41 142.66 41 143.32 41 144 C40.34 144 39.68 144 39 144 C38.62875 145.175625 38.62875 145.175625 38.25 146.375 C36.84610901 149.32317108 35.99324263 149.9024777 33 151 C33 151.66 33 152.32 33 153 C32.34 153 31.68 153 31 153 C31 153.66 31 154.32 31 155 C30.01 155 29.02 155 28 155 C28 155.66 28 156.32 28 157 C27.01 157 26.02 157 25 157 C25 157.66 25 158.32 25 159 C24.34 159 23.68 159 23 159 C23 159.66 23 160.32 23 161 C21.68 161 20.36 161 19 161 C18.67 161.66 18.34 162.32 18 163 C18 162.34 18 161.68 18 161 C16.68 161 15.36 161 14 161 C14 161.66 14 162.32 14 163 C12.35 163 10.7 163 9 163 C9 163.66 9 164.32 9 165 C4.2593296 166.51297991 -0.11491967 167.31428018 -5.08203125 167.65625 C-7.23437452 167.85352643 -7.23437452 167.85352643 -9 170 C-11.50488281 170.25396729 -11.50488281 170.25396729 -14.703125 170.25878906 C-15.89776367 170.26509338 -17.09240234 170.27139771 -18.32324219 170.27789307 C-19.61907227 170.2738446 -20.91490234 170.26979614 -22.25 170.265625 C-23.58756582 170.26697178 -24.92513117 170.26891243 -26.26269531 170.27142334 C-29.06710466 170.274374 -31.87138669 170.27007894 -34.67578125 170.26074219 C-38.27404922 170.24934754 -41.87201886 170.25590734 -45.47027588 170.26788712 C-48.23260758 170.27510736 -50.99486833 170.27281706 -53.75720215 170.26763153 C-55.73038933 170.26564475 -57.70357926 170.27172842 -59.67675781 170.27789307 C-60.87139648 170.27158875 -62.06603516 170.26528442 -63.296875 170.25878906 C-64.35229492 170.25719788 -65.40771484 170.25560669 -66.49511719 170.25396729 C-69 170 -69 170 -71 168 C-73.20250992 167.53993654 -73.20250992 167.53993654 -75.625 167.375 C-76.44226563 167.30023438 -77.25953125 167.22546875 -78.1015625 167.1484375 C-79.04128906 167.07496094 -79.04128906 167.07496094 -80 167 C-80.33 166.01 -80.66 165.02 -81 164 C-83.31 163.67 -85.62 163.34 -88 163 C-88 162.01 -88 161.02 -88 160 C-85.66705225 159.95758277 -83.33297433 159.95907063 -81 160 C-80.67 160.33 -80.34 160.66 -80 161 C-76.93450206 161.39755191 -73.88987265 161.72336413 -70.8125 162 C-69.86101074 162.08685059 -68.90952148 162.17370117 -67.92919922 162.26318359 C-54.64963643 163.38756913 -41.31851172 163.66737524 -28 164 C-28 163.34 -28 162.68 -28 162 C-26.87464844 161.90203125 -25.74929687 161.8040625 -24.58984375 161.703125 C-12.64696992 160.574613 -0.4031769 159.39397916 10 153 C12.64736301 152.13602638 15.27340784 151.60077454 18 151 C18 150.34 18 149.68 18 149 C19.0725 148.608125 20.145 148.21625 21.25 147.8125 C24.91466833 146.27259896 26.6513688 144.21849461 29 141 C29.66 141 30.32 141 31 141 C31.12632812 140.41605469 31.25265625 139.83210937 31.3828125 139.23046875 C31.99067551 137.03369798 32.79376941 135.31151934 33.875 133.3125 C37.67185773 125.87010858 39.54611445 118.1930727 41 110 C41.66 110 42.32 110 43 110 C43.03738281 109.15179688 43.07476562 108.30359375 43.11328125 107.4296875 C43.69741234 97.00695623 45.33034535 87.10107095 48.5 77.125 C49.84010839 72.88942425 50.66940993 68.61835083 51.4375 64.25 C52.57572981 57.78074332 54.19480995 51.58312465 56.08203125 45.28515625 C57.39730564 40.57815302 58.25152055 35.82572279 59 31 C59.66 31 60.32 31 61 31 C61.03738281 30.06800781 61.07476562 29.13601562 61.11328125 28.17578125 C61.21189453 26.26345703 61.21189453 26.26345703 61.3125 24.3125 C61.37050781 23.07113281 61.42851562 21.82976563 61.48828125 20.55078125 C62.15495943 14.6219257 63.65843859 8.8134328 65 3 C44.21 3 23.42 3 2 3 C2 3.66 2 4.32 2 5 C1.01 4.67 0.02 4.34 -1 4 C-0.67 2.68 -0.34 1.36 0 0 Z " fill="#8B8989" transform="translate(218,32)"/>
<path d="M0 0 C9.57 0 19.14 0 29 0 C29 29.37 29 58.74 29 89 C19.43 89 9.86 89 0 89 C0 59.63 0 30.26 0 0 Z " fill="#FFFFFF" transform="translate(446,82)"/>
<path d="M0 0 C52.8 0 105.6 0 160 0 C160 1.98 160 3.96 160 6 C160.99 6.495 160.99 6.495 162 7 C162 6.34 162 5.68 162 5 C163.98 5.495 163.98 5.495 166 6 C166 6.99 166 7.98 166 9 C165.34 9 164.68 9 164 9 C164.0309375 10.11375 164.0309375 10.11375 164.0625 11.25 C164.00520432 13.77100994 163.62199344 15.58113664 163 18 C162.82227365 19.39446829 162.656603 20.7905018 162.5 22.1875 C162 26 162 26 161 27 C160.71756753 28.32491881 160.48697793 29.66102503 160.28125 31 C160.15363281 31.804375 160.02601563 32.60875 159.89453125 33.4375 C159.69923828 34.7059375 159.69923828 34.7059375 159.5 36 C159.24330542 37.66724399 158.98307543 39.33394878 158.71875 41 C158.54762695 42.11375 158.54762695 42.11375 158.37304688 43.25 C158 45 158 45 157 46 C155.52645652 46.09304018 154.04849409 46.11746265 152.57202148 46.11352539 C151.63112167 46.11344986 150.69022186 46.11337433 149.72080994 46.11329651 C148.69790359 46.10813522 147.67499725 46.10297394 146.62109375 46.09765625 C145.57929459 46.0962413 144.53749542 46.09482635 143.46412659 46.09336853 C140.12188906 46.0877508 136.77971743 46.0751953 133.4375 46.0625 C131.17773534 46.05748728 128.91796963 46.05292398 126.65820312 46.04882812 C121.10544609 46.03777561 115.55272775 46.02102024 110 46 C110.495 47.98 110.495 47.98 111 50 C110.34 50 109.68 50 109 50 C109.01160156 50.71027344 109.02320313 51.42054687 109.03515625 52.15234375 C109.04417969 53.07144531 109.05320312 53.99054688 109.0625 54.9375 C109.07410156 55.85402344 109.08570313 56.77054688 109.09765625 57.71484375 C109 60 109 60 108 61 C107.7746669 63.0279979 107.55232815 65.05674874 107.37890625 67.08984375 C107 69 107 69 105 71 C105.04125 71.825 105.0825 72.65 105.125 73.5 C105.00142037 76.96022965 104.44677079 78.53891959 103.0625 81.625 C100.60115712 87.33044498 100.21161959 92.84186994 100 99 C99.34 99 98.68 99 98 99 C98 102.63 98 106.26 98 110 C97.34 110 96.68 110 96 110 C96 112.64 96 115.28 96 118 C95.34 118 94.68 118 94 118 C94 120.97 94 123.94 94 127 C93.34 127 92.68 127 92 127 C92 129.64 92 132.28 92 135 C91.34 135 90.68 135 90 135 C90 137.97 90 140.94 90 144 C89.34 144 88.68 144 88 144 C88.02320312 144.83144531 88.04640625 145.66289062 88.0703125 146.51953125 C88.08835937 147.60621094 88.10640625 148.69289062 88.125 149.8125 C88.14820312 150.89144531 88.17140625 151.97039062 88.1953125 153.08203125 C88 156 88 156 86 159 C85.63661151 161.31660165 85.49737882 163.60240747 85.34375 165.94140625 C85 168 85 168 83 170 C80.31160615 170.26991906 77.70858064 170.08737357 75 170 C74.69070439 161.11634284 75.0677052 152.43568336 78.5 144.125 C80.74535528 138.67687906 81.24787131 132.80466376 82 127 C82.66 127 83.32 127 84 127 C83.938125 126.0925 83.87625 125.185 83.8125 124.25 C83.8125 120.88897588 84.4386413 117.99055935 85.3125 114.75 C86.73221932 109.42438621 87.68096178 104.12930067 88.5 98.6875 C91.70489455 77.59331476 91.70489455 77.59331476 94.46484375 69.74609375 C96.21312925 64.6470177 97.14804493 59.48983415 98.0625 54.1875 C98.38103255 52.34666328 98.70504793 50.50676491 99.03515625 48.66796875 C99.1731665 47.86641357 99.31117676 47.0648584 99.45336914 46.23901367 C100 44 100 44 102 40 C117.84 39.67 133.68 39.34 150 39 C150.99 33.39 151.98 27.78 153 22 C153.556875 19.5559375 153.556875 19.5559375 154.125 17.0625 C155.12071613 12.43953227 155.52944859 7.70551407 156 3 C104.85 3 53.7 3 1 3 C0.67 5.31 0.34 7.62 0 10 C-0.66 10 -1.32 10 -2 10 C-2 7.69 -2 5.38 -2 3 C-1.34 3 -0.68 3 0 3 C0 2.01 0 1.02 0 0 Z " fill="#939391" transform="translate(25,32)"/>
<path d="M0 0 C0.33 0 0.66 0 1 0 C1.495 2.475 1.495 2.475 2 5 C2.99 5.33 3.98 5.66 5 6 C2.51844175 14.47969654 -2.35764467 21.7011595 -9.9375 26.375 C-10.68902344 26.77460938 -11.44054687 27.17421875 -12.21484375 27.5859375 C-14.25836219 28.92130582 -14.25836219 28.92130582 -14.75390625 31.6640625 C-14.87572266 32.82035156 -14.87572266 32.82035156 -15 34 C-16.32 34 -17.64 34 -19 34 C-19.495 34.99 -19.495 34.99 -20 36 C-20 35.34 -20 34.68 -20 34 C-21.32 34 -22.64 34 -24 34 C-24 34.66 -24 35.32 -24 36 C-25.65 36 -27.3 36 -29 36 C-29 36.66 -29 37.32 -29 38 C-33.7406704 39.51297991 -38.11491967 40.31428018 -43.08203125 40.65625 C-45.23437452 40.85352643 -45.23437452 40.85352643 -47 43 C-49.50488281 43.25396729 -49.50488281 43.25396729 -52.703125 43.25878906 C-53.89776367 43.26509338 -55.09240234 43.27139771 -56.32324219 43.27789307 C-57.61907227 43.2738446 -58.91490234 43.26979614 -60.25 43.265625 C-61.58756582 43.26697178 -62.92513117 43.26891243 -64.26269531 43.27142334 C-67.06710466 43.274374 -69.87138669 43.27007894 -72.67578125 43.26074219 C-76.27404922 43.24934754 -79.87201886 43.25590734 -83.47027588 43.26788712 C-86.23260758 43.27510736 -88.99486833 43.27281706 -91.75720215 43.26763153 C-93.73038933 43.26564475 -95.70357926 43.27172842 -97.67675781 43.27789307 C-98.87139648 43.27158875 -100.06603516 43.26528442 -101.296875 43.25878906 C-102.35229492 43.25719788 -103.40771484 43.25560669 -104.49511719 43.25396729 C-107 43 -107 43 -109 41 C-111.20250992 40.53993654 -111.20250992 40.53993654 -113.625 40.375 C-114.44226563 40.30023438 -115.25953125 40.22546875 -116.1015625 40.1484375 C-116.72804687 40.09945312 -117.35453125 40.05046875 -118 40 C-118.495 38.515 -118.495 38.515 -119 37 C-121.31 36.67 -123.62 36.34 -126 36 C-126 35.01 -126 34.02 -126 33 C-123.66705225 32.95758277 -121.33297433 32.95907063 -119 33 C-118.67 33.33 -118.34 33.66 -118 34 C-114.93450206 34.39755191 -111.88987265 34.72336413 -108.8125 35 C-107.86101074 35.08685059 -106.90952148 35.17370117 -105.92919922 35.26318359 C-92.64963643 36.38756913 -79.31851172 36.66737524 -66 37 C-66 36.34 -66 35.68 -66 35 C-64.87464844 34.90203125 -63.74929687 34.8040625 -62.58984375 34.703125 C-50.64696992 33.574613 -38.4031769 32.39397916 -28 26 C-25.35263699 25.13602638 -22.72659216 24.60077454 -20 24 C-20 23.34 -20 22.68 -20 22 C-18.9275 21.608125 -17.855 21.21625 -16.75 20.8125 C-13.08533167 19.27259896 -11.3486312 17.21849461 -9 14 C-8.34 14 -7.68 14 -7 14 C-6.87496094 13.42507812 -6.74992187 12.85015625 -6.62109375 12.2578125 C-5.98691142 9.95242014 -5.1370025 8.0077861 -4.0625 5.875 C-3.55396484 4.85019531 -3.55396484 4.85019531 -3.03515625 3.8046875 C-2 2 -2 2 0 0 Z " fill="#8D8D8D" transform="translate(256,159)"/>
<path d="M0 0 C52.8 0 105.6 0 160 0 C160 1.98 160 3.96 160 6 C159.34 6 158.68 6 158 6 C158.33 7.32 158.66 8.64 159 10 C159.66 10 160.32 10 161 10 C161.04254356 11.99954746 161.04080783 14.00041636 161 16 C160.67 16.33 160.34 16.66 160 17 C159.62742948 19.13936977 159.30149918 21.28696285 159 23.4375 C158.10839695 29.78320611 158.10839695 29.78320611 157 32 C156.68954474 34.59143905 156.49026088 37.18371732 156.28125 39.78515625 C156 42 156 42 155 43 C153.37225224 43.06395625 151.7416579 43.057048 150.11303711 43.02172852 C149.07203354 43.00163223 148.03102997 42.98153595 146.95848083 42.96083069 C145.26006798 42.92027809 145.26006798 42.92027809 143.52734375 42.87890625 C141.79817467 42.84348976 141.79817467 42.84348976 140.03407288 42.80735779 C136.33509686 42.73049697 132.63631854 42.6465695 128.9375 42.5625 C126.43685878 42.50930175 123.93620778 42.45656123 121.43554688 42.40429688 C115.29024102 42.27485165 109.14508317 42.13959707 103 42 C102.86867676 42.67401855 102.73735352 43.34803711 102.60205078 44.04248047 C102.42657715 44.93338379 102.25110352 45.82428711 102.0703125 46.7421875 C101.81145264 48.06259033 101.81145264 48.06259033 101.54736328 49.40966797 C100.85897467 52.66738569 99.96915559 55.81563163 99 59 C98.67 59 98.34 59 98 59 C98.08961059 57.51988019 98.19773972 56.04088249 98.3125 54.5625 C98.37050781 53.73878906 98.42851563 52.91507813 98.48828125 52.06640625 C99.17780397 47.93453347 100.67531837 43.9740449 102 40 C117.84 39.67 133.68 39.34 150 39 C150.99 33.39 151.98 27.78 153 22 C153.556875 19.5559375 153.556875 19.5559375 154.125 17.0625 C155.12071613 12.43953227 155.52944859 7.70551407 156 3 C104.85 3 53.7 3 1 3 C0.67 5.31 0.34 7.62 0 10 C-0.66 10 -1.32 10 -2 10 C-2 7.69 -2 5.38 -2 3 C-1.34 3 -0.68 3 0 3 C0 2.01 0 1.02 0 0 Z " fill="#6665AF" transform="translate(25,32)"/>
<path d="M0 0 C3.64462057 2.45799992 6.06132574 4.53082394 7.2578125 8.890625 C8.11998285 14.28377567 7.59019661 18.03709589 4.6875 22.8125 C0.37774953 26.6211167 -3.67084323 27.89996755 -9.3125 27.8125 C-14.87877605 26.86906338 -17.66777886 25.10040722 -21.3125 20.8125 C-23.28824437 16.86101126 -22.74440217 12.11935543 -22.3125 7.8125 C-20.53902978 3.99271798 -19.05300477 2.32913123 -15.625 -0.0625 C-10.13423614 -1.92728773 -5.4652753 -1.95924963 0 0 Z " fill="#FFFFFF" transform="translate(468.3125,45.1875)"/>
<path d="M0 0 C0.33 0 0.66 0 1 0 C1.40170825 5.12178015 0.82772312 8.93548677 -0.8125 13.8125 C-3.64104456 22.34846365 -4.76181815 31.11698322 -6 40 C-5.34 37.69 -4.68 35.38 -4 33 C-2.64984141 37.05047576 -3.37915002 39.7920168 -4 44 C-3.34 44 -2.68 44 -2 44 C-2.33 47.63 -2.66 51.26 -3 55 C-3.66 55 -4.32 55 -5 55 C-4.690625 56.918125 -4.690625 56.918125 -4.375 58.875 C-4.0234375 61.0546875 -4.0234375 61.0546875 -4 63 C-4.99 63.99 -4.99 63.99 -6 65 C-6.46800405 67.88401031 -6.46800405 67.88401031 -6.625 71.1875 C-6.69847656 72.35023438 -6.77195312 73.51296875 -6.84765625 74.7109375 C-7.00710499 78.1533949 -7.08010046 81.5556803 -7 85 C-7.66 85 -8.32 85 -9 85 C-8.97679688 85.83144531 -8.95359375 86.66289062 -8.9296875 87.51953125 C-8.90261719 89.14955078 -8.90261719 89.14955078 -8.875 90.8125 C-8.85179688 91.89144531 -8.82859375 92.97039062 -8.8046875 94.08203125 C-9 97 -9 97 -11 100 C-11.36338849 102.31660165 -11.50262118 104.60240747 -11.65625 106.94140625 C-12 109 -12 109 -14 111 C-16.68839385 111.26991906 -19.29141936 111.08737357 -22 111 C-22.30929561 102.11634284 -21.9322948 93.43568336 -18.5 85.125 C-16.25464472 79.67687906 -15.75212869 73.80466376 -15 68 C-14.34 68 -13.68 68 -13 68 C-13.061875 67.0925 -13.12375 66.185 -13.1875 65.25 C-13.1875 61.88897588 -12.5613587 58.99055935 -11.6875 55.75 C-10.26778068 50.42438621 -9.31903822 45.12930067 -8.5 39.6875 C-5.14226032 17.58730864 -5.14226032 17.58730864 -1.62890625 7.875 C-0.76310099 5.29371724 -0.34546943 2.69466154 0 0 Z " fill="#7F8091" transform="translate(122,91)"/>
<path d="M0 0 C50.82 0 101.64 0 154 0 C154 1.32 154 2.64 154 4 C152.82771441 4.00496522 152.82771441 4.00496522 151.63174629 4.01003075 C132.63730173 4.09116343 113.64293911 4.18322363 94.64860725 4.28752708 C85.46318359 4.33770194 76.27776906 4.38414418 67.09228516 4.421875 C59.08853647 4.45476104 51.08485774 4.49457328 43.08118618 4.54279006 C38.84120718 4.56808889 34.60127479 4.58986004 30.36124039 4.60334396 C26.37382277 4.61613378 22.38656475 4.63815443 18.39923477 4.66738319 C16.93266521 4.67648318 15.46606992 4.68215481 13.99947357 4.68421364 C12.00328532 4.68751899 10.00713212 4.70414114 8.01101685 4.7215271 C6.89196016 4.72705786 5.77290348 4.73258862 4.61993599 4.73828697 C1.8412291 4.73655767 1.8412291 4.73655767 0 7 C0 4.69 0 2.38 0 0 Z " fill="#0206AF" transform="translate(27,35)"/>
<path d="M0 0 C2.475 0.495 2.475 0.495 5 1 C5 1.99 5 2.98 5 4 C4.34 4 3.68 4 3 4 C3.02320313 4.84304687 3.04640625 5.68609375 3.0703125 6.5546875 C3.08835937 7.65039062 3.10640625 8.74609375 3.125 9.875 C3.14820313 10.96554688 3.17140625 12.05609375 3.1953125 13.1796875 C3 16 3 16 1 18 C0.37407549 20.71616785 -0.16067916 23.38171667 -0.625 26.125 C-0.7590625 26.87910156 -0.893125 27.63320312 -1.03125 28.41015625 C-1.36123229 30.27219918 -1.68154073 32.13595175 -2 34 C-2.66 34 -3.32 34 -4 34 C-4 36.31 -4 38.62 -4 41 C-4.66 41 -5.32 41 -6 41 C-6 42.98 -6 44.96 -6 47 C-6.66 47 -7.32 47 -8 47 C-8 48.32 -8 49.64 -8 51 C-8.66 51 -9.32 51 -10 51 C-10 51.66 -10 52.32 -10 53 C-9.34 53 -8.68 53 -8 53 C-8 53.66 -8 54.32 -8 55 C-8.66 55.66 -9.32 56.32 -10 57 C-10.33 57.99 -10.66 58.98 -11 60 C-11.66 60 -12.32 60 -13 60 C-13 60.66 -13 61.32 -13 62 C-13.66 62 -14.32 62 -15 62 C-15.2475 62.78375 -15.495 63.5675 -15.75 64.375 C-17.15389099 67.32317108 -18.00675737 67.9024777 -21 69 C-21 69.66 -21 70.32 -21 71 C-21.66 71 -22.32 71 -23 71 C-23 71.66 -23 72.32 -23 73 C-23.99 73 -24.98 73 -26 73 C-26 73.66 -26 74.32 -26 75 C-26.99 75 -27.98 75 -29 75 C-29 75.66 -29 76.32 -29 77 C-29.66 77 -30.32 77 -31 77 C-30.7890625 75.1953125 -30.7890625 75.1953125 -30 73 C-27.9609375 71.4296875 -27.9609375 71.4296875 -25.375 69.875 C-19.30223815 65.83230058 -14.08806906 60.46419193 -12.31640625 53.1953125 C-12.21199219 52.47085938 -12.10757812 51.74640625 -12 51 C-13.485 50.505 -13.485 50.505 -15 50 C-16.88189156 47.45944639 -17.01498568 46.17982822 -16.75 43 C-16 40 -16 40 -15 38.125 C-13.46106189 34.85475651 -13.35853508 31.58535082 -13 28 C-12.34 28 -11.68 28 -11 28 C-10.97421875 27.38253906 -10.9484375 26.76507813 -10.921875 26.12890625 C-10.35060099 17.59874663 -8.35424145 10.93062536 -2 5 C-0.74563813 2.36777038 -0.74563813 2.36777038 0 0 Z " fill="#8D8D8D" transform="translate(272,114)"/>
<path d="M0 0 C22.11 0 44.22 0 67 0 C67 1.65 67 3.3 67 5 C70.3 4.67 73.6 4.34 77 4 C76.67 7.3 76.34 10.6 76 14 C75.34 14 74.68 14 74 14 C74 15.32 74 16.64 74 18 C72.68 18 71.36 18 70 18 C70.061875 18.845625 70.12375 19.69125 70.1875 20.5625 C69.93191265 25.24826811 68.60034218 29.20761676 65.4375 32.75 C64.963125 33.1625 64.48875 33.575 64 34 C63.34 34.99 62.68 35.98 62 37 C61.01 37.495 61.01 37.495 60 38 C59.3873202 39.78860482 59.3873202 39.78860482 59 41.875 C58.36388761 44.95332961 57.8210698 46.2683953 56 49 C56.80499864 42.96251023 57.88482498 36.98729887 59 31 C59.66 31 60.32 31 61 31 C61.03738281 30.06800781 61.07476562 29.13601562 61.11328125 28.17578125 C61.17902344 26.90089844 61.24476563 25.62601563 61.3125 24.3125 C61.39951172 22.45044922 61.39951172 22.45044922 61.48828125 20.55078125 C62.15495943 14.6219257 63.65843859 8.8134328 65 3 C44.21 3 23.42 3 2 3 C2 3.66 2 4.32 2 5 C1.01 4.67 0.02 4.34 -1 4 C-0.67 2.68 -0.34 1.36 0 0 Z " fill="#8C7878" transform="translate(218,32)"/>
<path d="M0 0 C52.8 0 105.6 0 160 0 C160 0.66 160 1.32 160 2 C107.86 2.33 55.72 2.66 2 3 C1.34 5.31 0.68 7.62 0 10 C-0.66 10 -1.32 10 -2 10 C-2 7.69 -2 5.38 -2 3 C-1.34 3 -0.68 3 0 3 C0 2.01 0 1.02 0 0 Z " fill="#B4B4E3" transform="translate(25,32)"/>
<path d="M0 0 C1.65800798 4.42135462 0.66509036 6.67927714 0 12 C-20.79 12 -41.58 12 -63 12 C-63.33 10.68 -63.66 9.36 -64 8 C-62.824375 7.87625 -62.824375 7.87625 -61.625 7.75 C-58.85250896 7.27193661 -58.85250896 7.27193661 -57.6875 4.9375 C-57.460625 4.298125 -57.23375 3.65875 -57 3 C-56.67 4.32 -56.34 5.64 -56 7 C-38.18 7.33 -20.36 7.66 -2 8 C-1.67 5.69 -1.34 3.38 -1 1 C-0.67 0.67 -0.34 0.34 0 0 Z " fill="#0001AF" transform="translate(98,190)"/>
<path d="M0 0 C1.32 0.33 2.64 0.66 4 1 C4 1.99 4 2.98 4 4 C3.34 4 2.68 4 2 4 C2.020625 4.7425 2.04125 5.485 2.0625 6.25 C2.00520432 8.77100994 1.62199344 10.58113664 1 13 C0.82227365 14.39446829 0.656603 15.7905018 0.5 17.1875 C0 21 0 21 -1 22 C-1.28243247 23.32491881 -1.51302207 24.66102503 -1.71875 26 C-1.91017578 27.2065625 -1.91017578 27.2065625 -2.10546875 28.4375 C-2.23566406 29.283125 -2.36585938 30.12875 -2.5 31 C-2.75669458 32.66724399 -3.01692457 34.33394878 -3.28125 36 C-3.39533203 36.7425 -3.50941406 37.485 -3.62695312 38.25 C-4 40 -4 40 -5 41 C-6.47354348 41.09304018 -7.95150591 41.11746265 -9.42797852 41.11352539 C-10.36887833 41.11344986 -11.30977814 41.11337433 -12.27919006 41.11329651 C-13.30209641 41.10813522 -14.32500275 41.10297394 -15.37890625 41.09765625 C-16.42070541 41.0962413 -17.46250458 41.09482635 -18.53587341 41.09336853 C-21.87811094 41.0877508 -25.22028257 41.0751953 -28.5625 41.0625 C-30.82226466 41.05748728 -33.08203037 41.05292398 -35.34179688 41.04882812 C-40.89455391 41.03777561 -46.44727225 41.02102024 -52 41 C-50 38 -50 38 -48.12704468 37.60127258 C-47.36759552 37.59016953 -46.60814636 37.57906647 -45.82568359 37.56762695 C-44.96494232 37.54783279 -44.10420105 37.52803864 -43.21737671 37.50764465 C-42.28712677 37.50125473 -41.35687683 37.49486481 -40.3984375 37.48828125 C-39.44683746 37.47033005 -38.49523743 37.45237885 -37.51480103 37.43388367 C-34.4682461 37.37959751 -31.42184943 37.34582641 -28.375 37.3125 C-26.31247788 37.27934308 -24.24997671 37.24485496 -22.1875 37.20898438 C-17.1251139 37.12386056 -12.06277622 37.05713696 -7 37 C-6.90912109 35.96069336 -6.90912109 35.96069336 -6.81640625 34.90039062 C-6.73261719 33.99482422 -6.64882812 33.08925781 -6.5625 32.15625 C-6.48128906 31.25712891 -6.40007812 30.35800781 -6.31640625 29.43164062 C-5.96097032 26.70004966 -5.02015191 24.55037979 -4 22 C-3.69180164 19.5087299 -3.49113017 17.01727194 -3.28515625 14.515625 C-2.90601235 11.17084864 -2.04182881 8.19494167 -1 5 C-1.66 5 -2.32 5 -3 5 C-3 6.65 -3 8.3 -3 10 C-3.33 10 -3.66 10 -4 10 C-4 7.36 -4 4.72 -4 2 C-2.68 2 -1.36 2 0 2 C0 1.34 0 0.68 0 0 Z " fill="#A6A6A3" transform="translate(187,37)"/>
<path d="M0 0 C29.205 0.495 29.205 0.495 59 1 C59 1.66 59 2.32 59 3 C58.030625 3.12375 57.06125 3.2475 56.0625 3.375 C55.051875 3.58125 54.04125 3.7875 53 4 C52.67 4.66 52.34 5.32 52 6 C46.05518819 6.04934399 40.11049491 6.08569282 34.16552734 6.10986328 C32.14206873 6.11993671 30.11862472 6.13359595 28.09521484 6.15087891 C25.19104411 6.17506847 22.28706539 6.18646949 19.3828125 6.1953125 C18.02024826 6.21079636 18.02024826 6.21079636 16.63015747 6.22659302 C15.78943695 6.22674408 14.94871643 6.22689514 14.08251953 6.22705078 C12.96999313 6.23371262 12.96999313 6.23371262 11.83499146 6.24050903 C10 6 10 6 8 4 C5.34462628 3.43479997 2.70855287 3.26211802 0 3 C0 2.01 0 1.02 0 0 Z " fill="#878787" transform="translate(139,196)"/>
<path d="M0 0 C0 0.66 0 1.32 0 2 C-2.72903747 3.12531424 -5.45822505 4.250262 -8.1875 5.375 C-8.95642578 5.69210938 -9.72535156 6.00921875 -10.51757812 6.3359375 C-12.01642018 6.95348616 -13.51599724 7.56925436 -15.01635742 8.18310547 C-16.57927784 8.82674014 -18.1348394 9.48824486 -19.6875 10.15625 C-22.37665426 11.1374279 -24.99148889 11.6491668 -27.8125 12.125 C-28.78832031 12.29257813 -29.76414062 12.46015625 -30.76953125 12.6328125 C-31.87361328 12.81457031 -31.87361328 12.81457031 -33 13 C-32.01 13.495 -32.01 13.495 -31 14 C-31.33 15.32 -31.66 16.64 -32 18 C-35.63 18 -39.26 18 -43 18 C-42.505 16.515 -42.505 16.515 -42 15 C-40.02 15 -38.04 15 -36 15 C-36 14.34 -36 13.68 -36 13 C-36.57692093 13.00222061 -37.15384186 13.00444122 -37.74824524 13.00672913 C-43.80001196 13.02900192 -49.85176686 13.04399756 -55.90356445 13.05493164 C-58.15649896 13.0599335 -60.40943026 13.0667371 -62.66235352 13.07543945 C-65.91683751 13.0876879 -69.17127826 13.09326994 -72.42578125 13.09765625 C-73.91553215 13.10539818 -73.91553215 13.10539818 -75.43537903 13.11329651 C-82.00858228 13.11381359 -88.46500419 12.70377799 -95 12 C-95.33 12.99 -95.66 13.98 -96 15 C-96.33 14.01 -96.66 13.02 -97 12 C-99.31 11.67 -101.62 11.34 -104 11 C-104 10.01 -104 9.02 -104 8 C-101.66705225 7.95758277 -99.33297433 7.95907063 -97 8 C-96.67 8.33 -96.34 8.66 -96 9 C-92.93450206 9.39755191 -89.88987265 9.72336413 -86.8125 10 C-85.86101074 10.08685059 -84.90952148 10.17370117 -83.92919922 10.26318359 C-70.64963643 11.38756913 -57.31851172 11.66737524 -44 12 C-44 11.34 -44 10.68 -44 10 C-42.87464844 9.90203125 -41.74929687 9.8040625 -40.58984375 9.703125 C-22.49584958 8.05046677 -22.49584958 8.05046677 -6 1 C-3.85469245 0.32576048 -2.24230893 0 0 0 Z " fill="#877979" transform="translate(234,184)"/>
<path d="M0 0 C11.22 0 22.44 0 34 0 C34 5.61 34 11.22 34 17 C33.34 17 32.68 17 32 17 C32 19.31 32 21.62 32 24 C30.68 24.33 29.36 24.66 28 25 C28 22.03 28 19.06 28 16 C28.66 16 29.32 16 30 16 C30 13.03 30 10.06 30 7 C30.66 6.67 31.32 6.34 32 6 C21.44 5.67 10.88 5.34 0 5 C0 3.35 0 1.7 0 0 Z " fill="#A0A09A" transform="translate(29,73)"/>
<path d="M0 0 C0.33 0 0.66 0 1 0 C1.144375 0.763125 1.28875 1.52625 1.4375 2.3125 C1.9632594 5.08172908 1.9632594 5.08172908 3 8 C2.6953125 10.6640625 2.6953125 10.6640625 2.125 13.625 C1.94195312 14.60726562 1.75890625 15.58953125 1.5703125 16.6015625 C1 19 1 19 0 20 C-0.23075082 21.34747084 -0.41153063 22.70377565 -0.5625 24.0625 C-0.706875 25.361875 -0.85125 26.66125 -1 28 C-1.66 28 -2.32 28 -3 28 C-3.66 31.63 -4.32 35.26 -5 39 C-6.32 39 -7.64 39 -9 39 C-9.33806014 32.35148396 -8.40251435 26.6946668 -6.80078125 20.2421875 C-5.71749201 15.85618715 -4.85112344 11.43585512 -4 7 C-3.01 7 -2.02 7 -1 7 C-0.67 4.69 -0.34 2.38 0 0 Z " fill="#070AAF" transform="translate(26,35)"/>
<path d="M0 0 C0.66 0 1.32 0 2 0 C2.28906903 6.42375622 2.45654593 11.9528902 -0.140625 17.89453125 C-3.22560639 25.45273566 -4.31547335 33.70251237 -5.4609375 41.73046875 C-6.31369704 46.90264074 -7.63322748 51.94294169 -9 57 C-9.66 57 -10.32 57 -11 57 C-10.95875 57.763125 -10.9175 58.52625 -10.875 59.3125 C-11 62 -11 62 -13 65 C-13.99 64.67 -14.98 64.34 -16 64 C-15.5875 62.989375 -15.175 61.97875 -14.75 60.9375 C-11.27550268 51.63908336 -8.69557981 41.91201222 -8 32 C-7.34 32 -6.68 32 -6 32 C-6 29.36 -6 26.72 -6 24 C-5.34 24 -4.68 24 -4 24 C-4 21.03 -4 18.06 -4 15 C-3.34 15 -2.68 15 -2 15 C-2 12.03 -2 9.06 -2 6 C-1.67 6 -1.34 6 -1 6 C-0.67 4.02 -0.34 2.04 0 0 Z " fill="#AF8484" transform="translate(206,82)"/>
<path d="M0 0 C0.33 0 0.66 0 1 0 C1.40170825 5.12178015 0.82772312 8.93548677 -0.8125 13.8125 C-3.64104456 22.34846365 -4.76181815 31.11698322 -6 40 C-5.34 37.69 -4.68 35.38 -4 33 C-2.64984141 37.05047576 -3.37915002 39.7920168 -4 44 C-3.34 44 -2.68 44 -2 44 C-2.33 47.63 -2.66 51.26 -3 55 C-3.66 55 -4.32 55 -5 55 C-4.731875 56.19625 -4.46375 57.3925 -4.1875 58.625 C-3.84031406 61.22657996 -3.75016751 62.53891919 -5.01171875 64.8671875 C-6.375 66.5 -6.375 66.5 -9 69 C-9.33 69 -9.66 69 -10 69 C-10 67.35 -10 65.7 -10 64 C-9.34 64 -8.68 64 -8 64 C-8.01160156 63.28972656 -8.02320312 62.57945312 -8.03515625 61.84765625 C-8.04417969 60.92855469 -8.05320312 60.00945312 -8.0625 59.0625 C-8.07410156 58.14597656 -8.08570312 57.22945312 -8.09765625 56.28515625 C-8 54 -8 54 -7 53 C-7 50.69 -7 48.38 -7 46 C-8.32 50.95 -9.64 55.9 -11 61 C-12.1554294 56.37828241 -11.36907031 53.1928753 -10.3125 48.6875 C-8.40235159 40.16992523 -6.84782399 31.62830639 -5.48364258 23.0065918 C-4.62163936 17.78430052 -3.46515802 12.91266156 -1.65527344 7.93432617 C-0.77389765 5.33256001 -0.34858737 2.7189815 0 0 Z " fill="#85868E" transform="translate(122,91)"/>
<path d="M0 0 C0.99 0 1.98 0 3 0 C3 0.66 3 1.32 3 2 C2.34 2 1.68 2 1 2 C1.02320312 2.83144531 1.04640625 3.66289062 1.0703125 4.51953125 C1.09738281 6.14955078 1.09738281 6.14955078 1.125 7.8125 C1.14820312 8.89144531 1.17140625 9.97039062 1.1953125 11.08203125 C1 14 1 14 -1 17 C-1.36338849 19.31660165 -1.50262118 21.60240747 -1.65625 23.94140625 C-2 26 -2 26 -4 28 C-7.625 28.125 -7.625 28.125 -11 28 C-11.2358396 22.22192976 -10.86783046 17.48675196 -9 12 C-8.401875 11.938125 -7.80375 11.87625 -7.1875 11.8125 C-4.14245324 10.68148263 -3.55509485 8.75675905 -2 6 C-1.34 6 -0.68 6 0 6 C0 4.02 0 2.04 0 0 Z " fill="#969696" transform="translate(112,174)"/>
<path d="M0 0 C2 3 2 3 2 6 C-2.7406704 7.51297991 -7.11491967 8.31428018 -12.08203125 8.65625 C-14.23437452 8.85352643 -14.23437452 8.85352643 -16 11 C-19.625 11.125 -19.625 11.125 -23 11 C-22.67 9.68 -22.34 8.36 -22 7 C-22.99 6.67 -23.98 6.34 -25 6 C-22.1365029 4.69841041 -19.76395766 3.96940192 -16.625 3.5625 C-12.9192291 3.14615863 -12.9192291 3.14615863 -9.4375 1.4375 C-5.92125507 -0.0329297 -3.75932243 -0.52455662 0 0 Z " fill="#909696" transform="translate(225,191)"/>
<path d="M0 0 C0.33 0 0.66 0 1 0 C1.17922662 5.1975721 1.02641345 9.11276756 -1 14 C-2 15 -2 15 -3.90455627 15.12025452 C-4.73728561 15.11803391 -5.57001495 15.11581329 -6.42797852 15.11352539 C-7.36887833 15.11344986 -8.30977814 15.11337433 -9.27919006 15.11329651 C-10.30209641 15.10813522 -11.32500275 15.10297394 -12.37890625 15.09765625 C-13.42070541 15.0962413 -14.46250458 15.09482635 -15.53587341 15.09336853 C-18.87811094 15.0877508 -22.22028257 15.0751953 -25.5625 15.0625 C-27.82226466 15.05748728 -30.08203037 15.05292398 -32.34179688 15.04882812 C-37.89455391 15.03777561 -43.44727225 15.02102024 -49 15 C-49.13132324 15.67401855 -49.26264648 16.34803711 -49.39794922 17.04248047 C-49.66115967 18.37883545 -49.66115967 18.37883545 -49.9296875 19.7421875 C-50.18854736 21.06259033 -50.18854736 21.06259033 -50.45263672 22.40966797 C-51.14102533 25.66738569 -52.03084441 28.81563163 -53 32 C-53.33 32 -53.66 32 -54 32 C-53.91038941 30.51988019 -53.80226028 29.04088249 -53.6875 27.5625 C-53.62949219 26.73878906 -53.57148437 25.91507813 -53.51171875 25.06640625 C-52.82219603 20.93453347 -51.32468163 16.9740449 -50 13 C-34.16 12.67 -18.32 12.34 -2 12 C-1.34 8.04 -0.68 4.08 0 0 Z " fill="#5F6494" transform="translate(177,59)"/>
<path d="M0 0 C22.11 0 44.22 0 67 0 C67 0.66 67 1.32 67 2 C45.55 2 24.1 2 2 2 C2 2.99 2 3.98 2 5 C1.01 4.67 0.02 4.34 -1 4 C-0.67 2.68 -0.34 1.36 0 0 Z " fill="#CAB0B0" transform="translate(218,32)"/>
<path d="M0 0 C2.58396679 -0.08112454 5.16537568 -0.14054748 7.75 -0.1875 C8.47960937 -0.21263672 9.20921875 -0.23777344 9.9609375 -0.26367188 C14.78731876 -0.32948616 15.94866839 -0.03849871 20 3 C14.72 3 9.44 3 4 3 C2.26357694 8.98999418 2.26357694 8.98999418 1.375 14.9375 C1.30023438 15.70964844 1.22546875 16.48179687 1.1484375 17.27734375 C1.09945312 17.84582031 1.05046875 18.41429687 1 19 C0.34 19 -0.32 19 -1 19 C-0.979375 19.969375 -0.95875 20.93875 -0.9375 21.9375 C-1 25 -1 25 -2 26 C-2.23192865 27.51469448 -2.41215238 29.03754562 -2.5625 30.5625 C-2.68818359 31.80193359 -2.68818359 31.80193359 -2.81640625 33.06640625 C-2.87699219 33.70449219 -2.93757812 34.34257812 -3 35 C-3.99 34.67 -4.98 34.34 -6 34 C-5.5843824 30.0516328 -5.14893832 26.4933582 -4 22.6875 C-2.68178738 17.82659096 -2.34437853 13.01161383 -2 8 C-1.34 8 -0.68 8 0 8 C0 5.36 0 2.72 0 0 Z " fill="#A67979" transform="translate(136,155)"/>
<path d="M0 0 C0.99 0 1.98 0 3 0 C3 0.66 3 1.32 3 2 C2.34 2 1.68 2 1 2 C1 4.31 1 6.62 1 9 C0.34 9 -0.32 9 -1 9 C-1 10.98 -1 12.96 -1 15 C-1.66 15 -2.32 15 -3 15 C-3 16.32 -3 17.64 -3 19 C-3.66 19 -4.32 19 -5 19 C-5 19.66 -5 20.32 -5 21 C-4.34 21 -3.68 21 -3 21 C-3 21.66 -3 22.32 -3 23 C-3.66 23.66 -4.32 24.32 -5 25 C-5.33 25.99 -5.66 26.98 -6 28 C-6.66 28 -7.32 28 -8 28 C-8 28.66 -8 29.32 -8 30 C-8.66 30 -9.32 30 -10 30 C-10.2475 30.78375 -10.495 31.5675 -10.75 32.375 C-12.15389099 35.32317108 -13.00675737 35.9024777 -16 37 C-16 37.66 -16 38.32 -16 39 C-16.66 39 -17.32 39 -18 39 C-18 39.66 -18 40.32 -18 41 C-18.99 41 -19.98 41 -21 41 C-21 41.66 -21 42.32 -21 43 C-21.99 43 -22.98 43 -24 43 C-24 43.66 -24 44.32 -24 45 C-24.66 45 -25.32 45 -26 45 C-25.7890625 43.1953125 -25.7890625 43.1953125 -25 41 C-22.9609375 39.4296875 -22.9609375 39.4296875 -20.375 37.875 C-9.07197954 30.33965303 -5.21960942 18.62726246 -2 6 C-1.34 6 -0.68 6 0 6 C0 4.02 0 2.04 0 0 Z " fill="#AEAEAE" transform="translate(267,146)"/>
<path d="M0 0 C0.33 0 0.66 0 1 0 C1.37343427 8.58898819 0.31708787 16.02132217 -5 23 C-5.69429379 24.3191582 -6.37530495 25.64649406 -7 27 C-7 25.68 -7 24.36 -7 23 C-7.66 23 -8.32 23 -9 23 C-9.66 28.28 -10.32 33.56 -11 39 C-11.33 39 -11.66 39 -12 39 C-12.37143906 28.33144465 -11.10173516 18.88145288 -7 9 C-6.67 9 -6.34 9 -6 9 C-5.67 11.64 -5.34 14.28 -5 17 C-4.72285156 15.85660156 -4.44570312 14.71320313 -4.16015625 13.53515625 C-3.79445622 12.04422535 -3.42856071 10.55334239 -3.0625 9.0625 C-2.88009766 8.30775391 -2.69769531 7.55300781 -2.50976562 6.77539062 C-1.11328125 1.11328125 -1.11328125 1.11328125 0 0 Z " fill="#757691" transform="translate(112,163)"/>
<path d="M0 0 C0 0.66 0 1.32 0 2 C-0.969375 2.12375 -1.93875 2.2475 -2.9375 2.375 C-4.4534375 2.684375 -4.4534375 2.684375 -6 3 C-6.33 3.66 -6.66 4.32 -7 5 C-15.25 5 -23.5 5 -32 5 C-32 3.68 -32 2.36 -32 1 C-28.16678585 0.8305164 -24.33341274 0.6649259 -20.5 0.5 C-18.88351563 0.42845703 -18.88351563 0.42845703 -17.234375 0.35546875 C-11.4831177 0.10998826 -5.75643239 -0.05588769 0 0 Z " fill="#9C9E9E" transform="translate(198,197)"/>
<path d="M0 0 C0.26080883 4.08600507 0.08353553 7.15253467 -1.34375 11 C-3.28112441 16.5875001 -4.48005249 22.28061388 -5.6875 28.0625 C-5.91244141 29.11888672 -6.13738281 30.17527344 -6.36914062 31.26367188 C-6.91736863 33.84150996 -7.46088436 36.42024369 -8 39 C-9.32 39 -10.64 39 -12 39 C-12 38.34 -12 37.68 -12 37 C-11.34 37 -10.68 37 -10 37 C-10 34.36 -10 31.72 -10 29 C-9.34 29 -8.68 29 -8 29 C-8 26.03 -8 23.06 -8 20 C-7.34 20 -6.68 20 -6 20 C-6 16.7 -6 13.4 -6 10 C-5.34 10 -4.68 10 -4 10 C-4 7.03 -4 4.06 -4 1 C-2 0 -2 0 0 0 Z " fill="#767AD2" transform="translate(46,158)"/>
<path d="M0 0 C1.32 0 2.64 0 4 0 C4 0.66 4 1.32 4 2 C3.34 2 2.68 2 2 2 C2 5.63 2 9.26 2 13 C1.34 13 0.68 13 0 13 C0 15.64 0 18.28 0 21 C-0.66 21 -1.32 21 -2 21 C-2 23.97 -2 26.94 -2 30 C-2.66 30 -3.32 30 -4 30 C-4 32.64 -4 35.28 -4 38 C-4.66 38 -5.32 38 -6 38 C-6.33 38.66 -6.66 39.32 -7 40 C-6.88590318 37.89521396 -6.75834639 35.79115423 -6.625 33.6875 C-6.55539063 32.51574219 -6.48578125 31.34398437 -6.4140625 30.13671875 C-6 27 -6 27 -4 24 C-3.92094936 21.66800612 -3.91201231 19.33167378 -4 17 C-3.34 17 -2.68 17 -2 17 C-2.02320312 16.443125 -2.04640625 15.88625 -2.0703125 15.3125 C-2.20011024 9.82390985 -1.53328434 5.2706649 0 0 Z " fill="#A3A3A3" transform="translate(121,129)"/>
<path d="M0 0 C0.08333357 4.8333472 -0.04738513 9.23692563 -1 14 C-1.66 14 -2.32 14 -3 14 C-2.938125 15.155 -2.87625 16.31 -2.8125 17.5 C-2.79842897 21.48913718 -3.73149976 24.40536055 -5.28125 28.04296875 C-6.18508243 30.26481165 -6.18508243 30.26481165 -6.4375 33.875 C-6.623125 34.90625 -6.80875 35.9375 -7 37 C-9.03515625 38.1953125 -9.03515625 38.1953125 -11 39 C-10.79503906 38.2265625 -10.59007812 37.453125 -10.37890625 36.65625 C-8.53288378 29.55142318 -8.53288378 29.55142318 -7.375 22.3125 C-7 19 -7 19 -6 18 C-5.76924918 16.65252916 -5.58846937 15.29622435 -5.4375 13.9375 C-5.293125 12.638125 -5.14875 11.33875 -5 10 C-4.34 10 -3.68 10 -3 10 C-3 7.03 -3 4.06 -3 1 C-1 0 -1 0 0 0 Z " fill="#484CC3" transform="translate(58,100)"/>
<path d="M0 0 C0.33 0 0.66 0 1 0 C0.85966889 1.97956441 0.7125877 3.95865141 0.5625 5.9375 C0.48128906 7.03964844 0.40007812 8.14179687 0.31640625 9.27734375 C0 12 0 12 -1 13 C-1.3540813 15.13936518 -1.65742783 17.28719385 -1.9375 19.4375 C-2.74222203 25.34887914 -3.73736769 31.17039977 -5 37 C-5.99 36.67 -6.98 36.34 -8 36 C-8 33.03 -8 30.06 -8 27 C-7.34 27 -6.68 27 -6 27 C-6 24.36 -6 21.72 -6 19 C-5.34 19 -4.68 19 -4 19 C-4 16.03 -4 13.06 -4 10 C-3.34 10 -2.68 10 -2 10 C-2.04125 8.72125 -2.0825 7.4425 -2.125 6.125 C-2.1953125 3.9453125 -2.1953125 3.9453125 -2 2 C-1.34 1.34 -0.68 0.68 0 0 Z " fill="#B18888" transform="translate(217,40)"/>
<path d="M0 0 C1.32 0 2.64 0 4 0 C4 1.32 4 2.64 4 4 C3.01 4 2.02 4 1 4 C1.20625 4.845625 1.4125 5.69125 1.625 6.5625 C2.06622037 10.60702006 1.15522165 13.11021523 0 17 C-0.78716265 20.81773885 -1.50368452 24.64474423 -2.21875 28.4765625 C-2.89339766 31.51922343 -3.73833543 34.16125472 -5 37 C-5.66 37 -6.32 37 -7 37 C-5.4480198 18.1720297 -5.4480198 18.1720297 -2 13 C-1.60539977 10.67624308 -1.27769908 8.3406065 -1 6 C-0.6725678 3.99902542 -0.34123581 1.99866686 0 0 Z " fill="#A3A3A3" transform="translate(288,50)"/>
<path d="M0 0 C2.33294775 -0.04241723 4.66702567 -0.04092937 7 0 C7.33 0.33 7.66 0.66 8 1 C11.06549794 1.39755191 14.11012735 1.72336413 17.1875 2 C18.13898926 2.08685059 19.09047852 2.17370117 20.07080078 2.26318359 C33.35036357 3.38756913 46.68148828 3.66737524 60 4 C60 4.33 60 4.66 60 5 C54.5048047 5.02493457 49.00964318 5.04296987 43.5144043 5.05493164 C41.6494896 5.0599245 39.78457874 5.06672112 37.91967773 5.07543945 C18.03989442 5.16597155 18.03989442 5.16597155 9 4 C8.67 4.99 8.34 5.98 8 7 C7.67 6.01 7.34 5.02 7 4 C4.69 3.67 2.38 3.34 0 3 C0 2.01 0 1.02 0 0 Z " fill="#835656" transform="translate(130,192)"/>
<path d="M0 0 C1.70403994 3.40807988 -0.01337375 7.05866619 -0.875 10.625 C-1.97939735 15.24823582 -3.03231535 19.79539192 -3.5703125 24.5234375 C-4 28 -4 28 -5 29 C-6.50418739 29.09311889 -8.01271356 29.11746028 -9.51977539 29.11352539 C-10.96115623 29.11341209 -10.96115623 29.11341209 -12.43165588 29.11329651 C-13.476436 29.10813522 -14.52121613 29.10297394 -15.59765625 29.09765625 C-16.66165146 29.0962413 -17.72564667 29.09482635 -18.82188416 29.09336853 C-22.23545083 29.08775064 -25.648953 29.07519511 -29.0625 29.0625 C-31.37044176 29.05748731 -33.67838455 29.052924 -35.98632812 29.04882812 C-41.65757426 29.0377754 -47.32878253 29.02101987 -53 29 C-53 28.67 -53 28.34 -53 28 C-37.49 28 -21.98 28 -6 28 C-6 24.04 -6 20.08 -6 16 C-5.01 15.67 -4.02 15.34 -3 15 C-3.061875 14.01 -3.12375 13.02 -3.1875 12 C-3.21491645 7.53111789 -1.7208227 4.08695392 0 0 Z " fill="#1721AD" transform="translate(180,43)"/>
<path d="M0 0 C5.10863896 -0.0246501 10.21724359 -0.04283607 15.32592773 -0.05493164 C17.06519168 -0.05997204 18.80445136 -0.0668043 20.54370117 -0.07543945 C23.03825937 -0.08751792 25.53276173 -0.09323108 28.02734375 -0.09765625 C28.80963852 -0.10281754 29.59193329 -0.10797882 30.39793396 -0.11329651 C32.26567114 -0.11349226 34.13329204 -0.06199694 36 0 C37 1 37 1 37.09765625 3.06640625 C37.08605469 3.89011719 37.07445312 4.71382813 37.0625 5.5625 C37.05347656 6.38878906 37.04445312 7.21507813 37.03515625 8.06640625 C37.02355469 8.70449219 37.01195312 9.34257813 37 10 C36.34 10 35.68 10 35 10 C35 7.36 35 4.72 35 2 C17.675 2.495 17.675 2.495 0 3 C0 2.01 0 1.02 0 0 Z " fill="#2C36A6" transform="translate(28,71)"/>
<path d="M0 0 C0.33 0 0.66 0 1 0 C1.13277344 0.67546875 1.26554687 1.3509375 1.40234375 2.046875 C1.57894531 2.93890625 1.75554687 3.8309375 1.9375 4.75 C2.19853516 6.07257813 2.19853516 6.07257813 2.46484375 7.421875 C2.92368488 9.63235053 3.43336074 11.81512068 4 14 C4.99 14 5.98 14 7 14 C7 14.99 7 15.98 7 17 C5.68 17 4.36 17 3 17 C2.67 18.98 2.34 20.96 2 23 C1.34 23 0.68 23 0 23 C0 19.7 0 16.4 0 13 C-0.12375 14.134375 -0.2475 15.26875 -0.375 16.4375 C-0.58125 17.613125 -0.7875 18.78875 -1 20 C-1.66 20.33 -2.32 20.66 -3 21 C-2.48462048 13.86606248 -1.55994099 6.98187183 0 0 Z " fill="#89898D" transform="translate(118,112)"/>
<path d="M0 0 C15.51 0 31.02 0 47 0 C47 0.33 47 0.66 47 1 C28.19 1.495 28.19 1.495 9 2 C7.91915479 5.63619656 7.91915479 5.63619656 8 8 C7.34 8 6.68 8 6 8 C6 8.99 6 9.98 6 11 C5.34 11 4.68 11 4 11 C4.33 8.03 4.66 5.06 5 2 C4.34 1.67 3.68 1.34 3 1 C3 1.66 3 2.32 3 3 C2.01 3 1.02 3 0 3 C0 2.01 0 1.02 0 0 Z " fill="#A09F94" transform="translate(128,74)"/>
<path d="M0 0 C0.33 0 0.66 0 1 0 C1 4.62 1 9.24 1 14 C0.34 14 -0.32 14 -1 14 C-1 16.31 -1 18.62 -1 21 C-2.32 21.33 -3.64 21.66 -5 22 C-5 19.03 -5 16.06 -5 13 C-4.34 13 -3.68 13 -3 13 C-3 10.03 -3 7.06 -3 4 C-2.34 3.67 -1.68 3.34 -1 3 C-0.67 2.01 -0.34 1.02 0 0 Z " fill="#4447C1" transform="translate(62,76)"/>
<path d="M0 0 C0.66 0.66 1.32 1.32 2 2 C1.71875 4.14453125 1.71875 4.14453125 1 7 C0.7628125 8.22074219 0.525625 9.44148438 0.28125 10.69921875 C0.02088543 12.02865604 -0.23953225 13.35808292 -0.5 14.6875 C-0.63019531 15.36361328 -0.76039063 16.03972656 -0.89453125 16.73632812 C-1.88704587 21.77409175 -1.88704587 21.77409175 -3 24 C-3.66 24 -4.32 24 -5 24 C-5.33 25.32 -5.66 26.64 -6 28 C-6.4527016 20.45497328 -5.07529614 13.2540168 -3 6 C-2.34 5.34 -1.68 4.68 -1 4 C-0.3574765 1.93125966 -0.3574765 1.93125966 0 0 Z " fill="#660909" transform="translate(204,111)"/>
<path d="M0 0 C0 0.66 0 1.32 0 2 C-7.96002113 6.16183846 -14.82189973 9.07420106 -24 8 C-24.99 7.34 -25.98 6.68 -27 6 C-25.329375 6.061875 -25.329375 6.061875 -23.625 6.125 C-19.95633975 6.41121859 -19.95633975 6.41121859 -18 4 C-16.9275 3.855625 -15.855 3.71125 -14.75 3.5625 C-10.98940405 3.19625544 -10.98940405 3.19625544 -7.875 1.4375 C-4.91218426 -0.04390787 -3.25199641 -0.28694086 0 0 Z " fill="#6A0707" transform="translate(231,183)"/>
<path d="M0 0 C0 0.66 0 1.32 0 2 C-14.67274349 8.8680927 -27.73499859 11.51634925 -44 11 C-44 10.67 -44 10.34 -44 10 C-42.87464844 9.90203125 -41.74929687 9.8040625 -40.58984375 9.703125 C-22.49584958 8.05046677 -22.49584958 8.05046677 -6 1 C-3.85469245 0.32576048 -2.24230893 0 0 0 Z " fill="#7D4A4A" transform="translate(234,184)"/>
<path d="M0 0 C6.40629424 -0.20852314 11.92972642 -0.1583195 18 2 C17.67 3.32 17.34 4.64 17 6 C13.625 6.125 13.625 6.125 10 6 C9.34 5.34 8.68 4.68 8 4 C5.34462628 3.43479997 2.70855287 3.26211802 0 3 C0 2.01 0 1.02 0 0 Z " fill="#9EA0A0" transform="translate(139,196)"/>
<path d="M0 0 C19.47 0 38.94 0 59 0 C59 0.33 59 0.66 59 1 C57.95763435 1.0154612 57.95763435 1.0154612 56.89421082 1.03123474 C50.34637933 1.12919919 43.79863672 1.23171217 37.25095654 1.33933926 C33.88470387 1.39451122 30.51844243 1.44792197 27.15209961 1.49731445 C23.28230386 1.55496637 19.41264856 1.61867568 15.54296875 1.68359375 C14.33352097 1.70030624 13.12407318 1.71701874 11.87797546 1.73423767 C10.19657219 1.7641555 10.19657219 1.7641555 8.48120117 1.79467773 C7.49302902 1.81022202 6.50485687 1.8257663 5.48674011 1.84178162 C2.86800044 1.90213783 2.86800044 1.90213783 0 3 C0 2.01 0 1.02 0 0 Z " fill="#670808" transform="translate(221,35)"/>
<path d="M0 0 C0.99 0.33 1.98 0.66 3 1 C3 3.64 3 6.28 3 9 C2.34 9 1.68 9 1 9 C1.061875 10.5159375 1.061875 10.5159375 1.125 12.0625 C0.99426157 16.18076052 0.26749214 19.11830533 -1 23 C-1.99 23 -2.98 23 -4 23 C-2.68 15.41 -1.36 7.82 0 0 Z " fill="#7A7ED2" transform="translate(21,44)"/>
<path d="M0 0 C1.32 0.33 2.64 0.66 4 1 C4 1.99 4 2.98 4 4 C3.34 4 2.68 4 2 4 C2.020625 4.7425 2.04125 5.485 2.0625 6.25 C1.96192385 10.6753507 1.96192385 10.6753507 1 13 C-0.98 13.99 -0.98 13.99 -3 15 C-2.34 11.7 -1.68 8.4 -1 5 C-1.66 5 -2.32 5 -3 5 C-3 6.65 -3 8.3 -3 10 C-3.33 10 -3.66 10 -4 10 C-4 7.36 -4 4.72 -4 2 C-2.68 2 -1.36 2 0 2 C0 1.34 0 0.68 0 0 Z " fill="#999A9A" transform="translate(187,37)"/>
<path d="M0 0 C0.33 0 0.66 0 1 0 C1.09688221 5.44693314 1.12862175 10.63904667 0 16 C-0.66 16 -1.32 16 -2 16 C-1.938125 17.1446875 -1.938125 17.1446875 -1.875 18.3125 C-2 21 -2 21 -4 24 C-4.99 23.67 -5.98 23.34 -7 23 C-6.5875 21.989375 -6.175 20.97875 -5.75 19.9375 C-3.301238 13.45823979 -1.71882226 6.70078933 0 0 Z " fill="#B89494" transform="translate(197,123)"/>
<path d="M0 0 C1.32 0 2.64 0 4 0 C4 0.99 4 1.98 4 3 C3.34 3 2.68 3 2 3 C2 5.64 2 8.28 2 11 C1.34 11 0.68 11 0 11 C0.061875 12.093125 0.12375 13.18625 0.1875 14.3125 C0 18 0 18 -1.51171875 19.73046875 C-2.00285156 20.14941406 -2.49398438 20.56835938 -3 21 C-2.58169634 13.77875787 -2.04538889 6.95432222 0 0 Z " fill="#B1B1B1" transform="translate(279,90)"/>
<path d="M0 0 C0.33 0 0.66 0 1 0 C1.40170825 5.12178015 0.82772312 8.93548677 -0.8125 13.8125 C-2.99481086 20.36714392 -4.05753824 26.88710696 -4.96020508 33.7277832 C-5.80006116 39.80006116 -5.80006116 39.80006116 -8 42 C-7.37097776 30.35224343 -5.60783842 18.87435175 -1.62890625 7.875 C-0.76310099 5.29371724 -0.34546943 2.69466154 0 0 Z " fill="#4B4DA2" transform="translate(122,91)"/>
<path d="M0 0 C-0.33 3.3 -0.66 6.6 -1 10 C-1.99 10.33 -2.98 10.66 -4 11 C-5 10 -5 10 -5.0625 6.9375 C-5.041875 5.968125 -5.02125 4.99875 -5 4 C-6.65 4 -8.3 4 -10 4 C-10 3.01 -10 2.02 -10 1 C-8.5209084 0.83266843 -7.04172444 0.66615314 -5.5625 0.5 C-4.32693359 0.36078125 -4.32693359 0.36078125 -3.06640625 0.21875 C-1 0 -1 0 0 0 Z " fill="#ACACAC" transform="translate(295,36)"/>
<path d="M0 0 C0.33 0 0.66 0 1 0 C1.66268329 7.12384541 -0.74611936 13.30879185 -3 20 C-3.66 20 -4.32 20 -5 20 C-5.18130023 15.37684419 -4.89069368 12.20154151 -3 8 C-2.649375 6.7625 -2.29875 5.525 -1.9375 4.25 C-1 1 -1 1 0 0 Z " fill="#909797" transform="translate(279,68)"/>
<path d="M0 0 C0.33 0 0.66 0 1 0 C1.02689216 1.47906892 1.04634621 2.95827483 1.0625 4.4375 C1.07410156 5.26121094 1.08570312 6.08492187 1.09765625 6.93359375 C1 9 1 9 0 10 C-0.07205511 11.68608966 -0.08386068 13.37500659 -0.0625 15.0625 C-0.04896484 16.44115234 -0.04896484 16.44115234 -0.03515625 17.84765625 C-0.02355469 18.55792969 -0.01195313 19.26820313 0 20 C-1.65 20.33 -3.3 20.66 -5 21 C-4.32341215 16.70626941 -3.47592446 12.48551215 -2.5 8.25 C-2.2421875 7.12078125 -1.984375 5.9915625 -1.71875 4.828125 C-1 2 -1 2 0 0 Z " fill="#93938C" transform="translate(115,135)"/>
<path d="M0 0 C0.66 0 1.32 0 2 0 C1.85966889 1.97956441 1.7125877 3.95865141 1.5625 5.9375 C1.48128906 7.03964844 1.40007812 8.14179688 1.31640625 9.27734375 C1 12 1 12 0 13 C-0.23192865 14.51469448 -0.41215238 16.03754562 -0.5625 17.5625 C-0.64628906 18.38878906 -0.73007813 19.21507812 -0.81640625 20.06640625 C-0.87699219 20.70449219 -0.93757812 21.34257812 -1 22 C-1.99 21.67 -2.98 21.34 -4 21 C-3.29843593 13.84404654 -1.69214979 6.98144819 0 0 Z " fill="#B48D8D" transform="translate(134,168)"/>
<path d="M0 0 C0.33 0 0.66 0 1 0 C1.20465296 5.2186506 1.16128993 9.16888134 -1 14 C-1.185625 15.8253125 -1.185625 15.8253125 -1.375 17.6875 C-1.58125 18.780625 -1.7875 19.87375 -2 21 C-4.0390625 22.20703125 -4.0390625 22.20703125 -6 23 C-5.79503906 22.2265625 -5.59007812 21.453125 -5.37890625 20.65625 C-3.54250042 13.61648004 -3.54250042 13.61648004 -2.4375 6.4375 C-2 3 -2 3 0 0 Z " fill="#7F84D3" transform="translate(53,116)"/>
<path d="M0 0 C0.33 0 0.66 0 1 0 C0.78626429 1.53177257 0.57033125 3.06325139 0.34765625 4.59375 C0.07691411 6.46765065 -0.18416643 8.34294814 -0.44140625 10.21875 C-0.60511719 11.3634375 -0.76882812 12.508125 -0.9375 13.6875 C-1.09089844 14.78449219 -1.24429688 15.88148437 -1.40234375 17.01171875 C-2 20 -2 20 -4 24 C-4 18.39 -4 12.78 -4 7 C-3.34 7 -2.68 7 -2 7 C-2 6.01 -2 5.02 -2 4 C-1.34 4 -0.68 4 0 4 C0 2.68 0 1.36 0 0 Z " fill="#995F5F" transform="translate(202,107)"/>
<path d="M0 0 C0.99 0 1.98 0 3 0 C3 0.66 3 1.32 3 2 C2.34 2 1.68 2 1 2 C1 4.97 1 7.94 1 11 C0.34 11 -0.32 11 -1 11 C-1 13.64 -1 16.28 -1 19 C-1.66 19 -2.32 19 -3 19 C-3.33 19.66 -3.66 20.32 -4 21 C-3.88623383 18.87436897 -3.75864369 16.7494739 -3.625 14.625 C-3.55539063 13.44164062 -3.48578125 12.25828125 -3.4140625 11.0390625 C-3 8 -3 8 -1 6 C-0.60235737 4.01178687 -0.26224651 2.01055661 0 0 Z " fill="#B4B4B4" transform="translate(118,148)"/>
<path d="M0 0 C0.99 0 1.98 0 3 0 C3.2919519 5.54708616 2.19088986 10.61972975 1 16 C0.01 15.67 -0.98 15.34 -2 15 C-2 12.03 -2 9.06 -2 6 C-1.34 6 -0.68 6 0 6 C0 4.02 0 2.04 0 0 Z " fill="#AC8080" transform="translate(211,61)"/>
<path d="M0 0 C0 0.66 0 1.32 0 2 C-0.94875 2.12375 -1.8975 2.2475 -2.875 2.375 C-6.08667191 2.71687177 -6.08667191 2.71687177 -8 5 C-8 4.01 -8 3.02 -8 2 C-15.59 2 -23.18 2 -31 2 C-31.33 2.99 -31.66 3.98 -32 5 C-32 3.68 -32 2.36 -32 1 C-28.16678585 0.8305164 -24.33341274 0.6649259 -20.5 0.5 C-18.88351563 0.42845703 -18.88351563 0.42845703 -17.234375 0.35546875 C-11.4831177 0.10998826 -5.75643239 -0.05588769 0 0 Z " fill="#909494" transform="translate(198,197)"/>
<path d="M0 0 C0.66 0 1.32 0 2 0 C2.11138159 5.45769811 1.91657981 10.61509359 1 16 C0.01 16 -0.98 16 -2 16 C-2.2358396 10.22192976 -1.86783046 5.48675196 0 0 Z " fill="#98998C" transform="translate(103,186)"/>
<path d="M0 0 C0.33 0 0.66 0 1 0 C1.02689216 1.47906892 1.04634621 2.95827483 1.0625 4.4375 C1.07410156 5.26121094 1.08570313 6.08492187 1.09765625 6.93359375 C1 9 1 9 0 10 C-0.55950364 12.3452769 -1.07329579 14.70155796 -1.5625 17.0625 C-1.83191406 18.35285156 -2.10132813 19.64320312 -2.37890625 20.97265625 C-2.58386719 21.97167969 -2.78882813 22.97070312 -3 24 C-3.33 24 -3.66 24 -4 24 C-4.05449838 22.27119018 -4.09301688 20.54187288 -4.125 18.8125 C-4.14820313 17.84957031 -4.17140625 16.88664062 -4.1953125 15.89453125 C-3.98885375 12.83481257 -3.23088156 10.7875847 -2 8 C-1.59582781 6.570428 -1.21799316 5.13297118 -0.875 3.6875 C-0.441875 1.8621875 -0.441875 1.8621875 0 0 Z " fill="#620303" transform="translate(217,54)"/>
<path d="M0 0 C0.99 0 1.98 0 3 0 C3 1.32 3 2.64 3 4 C2.34 4 1.68 4 1 4 C1 9.61 1 15.22 1 21 C0.34 20.34 -0.32 19.68 -1 19 C-1.33 20.65 -1.66 22.3 -2 24 C-2.66 24 -3.32 24 -4 24 C-3.25 16.375 -3.25 16.375 -1 13 C-0.5396236 9.80193335 -0.5396236 9.80193335 -0.375 6.3125 C-0.30023438 5.13300781 -0.22546875 3.95351563 -0.1484375 2.73828125 C-0.09945312 1.83464844 -0.05046875 0.93101563 0 0 Z " fill="#7C7EA5" transform="translate(182,34)"/>
<path d="M0 0 C0.66 0 1.32 0 2 0 C2.04241723 2.33294775 2.04092937 4.66702567 2 7 C1.67 7.33 1.34 7.66 1 8 C0.814375 9.8253125 0.814375 9.8253125 0.625 11.6875 C0.1929099 15.61881158 -1.01613641 18.54980245 -3 22 C-3.33 22 -3.66 22 -4 22 C-4 20.02 -4 18.04 -4 16 C-3.34 16 -2.68 16 -2 16 C-2.02320313 15.43152344 -2.04640625 14.86304688 -2.0703125 14.27734375 C-2.19191688 9.07441352 -1.67723492 4.92687757 0 0 Z " fill="#5F0303" transform="translate(140,159)"/>
<path d="M0 0 C0.33 1.32 0.66 2.64 1 4 C-0.98 4.99 -0.98 4.99 -3 6 C-3 6.66 -3 7.32 -3 8 C-3.66 8 -4.32 8 -5 8 C-5 8.66 -5 9.32 -5 10 C-5.99 10 -6.98 10 -8 10 C-8 10.66 -8 11.32 -8 12 C-8.99 12 -9.98 12 -11 12 C-11 12.66 -11 13.32 -11 14 C-11.66 14 -12.32 14 -13 14 C-12.67737572 11.00420311 -12.16096124 10.13200525 -9.78515625 8.18359375 C-8.43744141 7.31927734 -8.43744141 7.31927734 -7.0625 6.4375 C-3.86396959 4.37111129 -2.13761342 3.20642013 0 0 Z " fill="#A1A1A1" transform="translate(254,177)"/>
<path d="M0 0 C0.99 0 1.98 0 3 0 C3 0.66 3 1.32 3 2 C2.34 2 1.68 2 1 2 C1.03480469 2.79664063 1.06960937 3.59328125 1.10546875 4.4140625 C1.37434095 14.93848858 1.37434095 14.93848858 -2 20 C-2.33 20 -2.66 20 -3 20 C-3.08333357 15.1666528 -2.95261487 10.76307437 -2 6 C-1.34 6 -0.68 6 0 6 C0 4.02 0 2.04 0 0 Z " fill="#A6A6A6" transform="translate(112,174)"/>
<path d="M0 0 C0.99 0.66 1.98 1.32 3 2 C3 2.99 3 3.98 3 5 C-1.1196377 6.29243536 -4.66831683 7.26252625 -9 7 C-8.67 6.01 -8.34 5.02 -8 4 C-7.01 4 -6.02 4 -5 4 C-5 3.34 -5 2.68 -5 2 C-2.6875 0.875 -2.6875 0.875 0 0 Z " fill="#959696" transform="translate(224,192)"/>
<path d="M0 0 C0.66 0.33 1.32 0.66 2 1 C1.2845114 5.76992399 0.33475008 10.36763208 -1 15 C-1.99 15.495 -1.99 15.495 -3 16 C-3.37952295 9.80112515 -2.8352113 5.5522888 0 0 Z " fill="#94938C" transform="translate(109,165)"/>
<path d="M0 0 C0.66 0.33 1.32 0.66 2 1 C1.979375 1.9075 1.95875 2.815 1.9375 3.75 C1.9889755 6.42672588 2.2215017 8.46988052 3 11 C1.68 11 0.36 11 -1 11 C-1 12.98 -1 14.96 -1 17 C-1.66 17 -2.32 17 -3 17 C-3.04241723 14.66705225 -3.04092937 12.33297433 -3 10 C-2.67 9.67 -2.34 9.34 -2 9 C-1.79395915 7.67218122 -1.6337041 6.33704105 -1.5 5 C-1.11111111 1.11111111 -1.11111111 1.11111111 0 0 Z " fill="#878787" transform="translate(125,103)"/>
<path d="M0 0 C0.66 0 1.32 0 2 0 C1.67 1.65 1.34 3.3 1 5 C0.01 5 -0.98 5 -2 5 C-2 5.66 -2 6.32 -2 7 C-7.94 7.495 -7.94 7.495 -14 8 C-13.34 7.01 -12.68 6.02 -12 5 C-8.6875 4.375 -8.6875 4.375 -5 4 C-3.33065717 3.68033861 -1.6626783 3.35268934 0 3 C0 2.01 0 1.02 0 0 Z " fill="#B18686" transform="translate(185,150)"/>
<path d="M0 0 C0.99 0 1.98 0 3 0 C2.85915204 1.79206547 2.71216299 3.58364917 2.5625 5.375 C2.48128906 6.37273437 2.40007813 7.37046875 2.31640625 8.3984375 C2 11 2 11 1 13 C0.01 13 -0.98 13 -2 13 C-2 10.36 -2 7.72 -2 5 C-1.67 5 -1.34 5 -1 5 C-0.67 3.35 -0.34 1.7 0 0 Z " fill="#9FA2DD" transform="translate(46,142)"/>
<path d="M0 0 C0.33 0 0.66 0 1 0 C1 2.64 1 5.28 1 8 C0.34 8 -0.32 8 -1 8 C-1.04898437 8.65226562 -1.09796875 9.30453125 -1.1484375 9.9765625 C-1.57242229 14.93279853 -2.15665573 19.33019451 -4 24 C-5.43737319 20.12198641 -4.58506211 17.08107945 -3.6875 13.125 C-3.42324219 11.93132812 -3.15898437 10.73765625 -2.88671875 9.5078125 C-2.06870493 6.27179306 -1.10260806 3.14893307 0 0 Z " fill="#7E5050" transform="translate(267,108)"/>
<path d="M0 0 C-0.33 0.66 -0.66 1.32 -1 2 C-3.31 2 -5.62 2 -8 2 C-8 3.32 -8 4.64 -8 6 C-8.99 5.67 -9.98 5.34 -11 5 C-10.67 4.01 -10.34 3.02 -10 2 C-10.99 1.67 -11.98 1.34 -13 1 C-8.31506124 -1.48887372 -5.0555786 -0.85687773 0 0 Z " fill="#8F9393" transform="translate(213,196)"/>
<path d="M0 0 C2.13586678 3.20380017 2.23132175 4.01939967 2.125 7.6875 C2.10695313 8.49574219 2.08890625 9.30398437 2.0703125 10.13671875 C2.03550781 11.05904297 2.03550781 11.05904297 2 12 C0.02 12.99 0.02 12.99 -2 14 C-2 9.71 -2 5.42 -2 1 C-1.34 0.67 -0.68 0.34 0 0 Z " fill="#1214B4" transform="translate(59,97)"/>
<path d="M0 0 C0.33 0.99 0.66 1.98 1 3 C0 4 0 4 -2.50390625 4.09765625 C-4.01791016 4.08025391 -4.01791016 4.08025391 -5.5625 4.0625 C-6.57441406 4.05347656 -7.58632812 4.04445312 -8.62890625 4.03515625 C-9.41136719 4.02355469 -10.19382813 4.01195312 -11 4 C-10.67 3.01 -10.34 2.02 -10 1 C-6.7 0.67 -3.4 0.34 0 0 Z " fill="#868686" transform="translate(202,198)"/>
<path d="M0 0 C1.92236145 6.3885997 0.34703171 12.89771756 -2 19 C-2.33 17.68 -2.66 16.36 -3 15 C-3.99 15 -4.98 15 -6 15 C-6 14.01 -6 13.02 -6 12 C-5.36578125 11.77570313 -4.7315625 11.55140625 -4.078125 11.3203125 C-1.77983843 10.16214243 -1.77983843 10.16214243 -1.171875 7.6171875 C-1.03265625 6.71226562 -0.8934375 5.80734375 -0.75 4.875 C-0.60046875 3.96492187 -0.4509375 3.05484375 -0.296875 2.1171875 C-0.19890625 1.41851562 -0.1009375 0.71984375 0 0 Z " fill="#373ABE" transform="translate(52,127)"/>
<path d="M0 0 C0.33 0 0.66 0 1 0 C1.19551338 1.60320974 1.38111983 3.20762986 1.5625 4.8125 C1.66691406 5.70582031 1.77132813 6.59914063 1.87890625 7.51953125 C2 10 2 10 1 13 C-0.32 13 -1.64 13 -3 13 C-3 10.69 -3 8.38 -3 6 C-2.01 6 -1.02 6 0 6 C0 4.02 0 2.04 0 0 Z " fill="#1F25BB" transform="translate(20,61)"/>
<path d="M0 0 C0.89847656 0.00257813 1.79695312 0.00515625 2.72265625 0.0078125 C3.61855469 0.00523437 4.51445312 0.00265625 5.4375 0 C7.78515625 0.1328125 7.78515625 0.1328125 9.78515625 1.1328125 C9.78515625 1.7928125 9.78515625 2.4528125 9.78515625 3.1328125 C7.99381647 3.18673243 6.20201726 3.22556821 4.41015625 3.2578125 C3.41242188 3.28101563 2.4146875 3.30421875 1.38671875 3.328125 C-1.21484375 3.1328125 -1.21484375 3.1328125 -3.21484375 1.1328125 C-2.21484375 0.1328125 -2.21484375 0.1328125 0 0 Z " fill="#6B0707" transform="translate(189.21484375,190.8671875)"/>
<path d="M0 0 C0.17835515 4.54805635 -0.00214565 7.8794254 -2 12 C-4.67927341 7.98108988 -4.15601248 5.75838077 -4 1 C-2 0 -2 0 0 0 Z " fill="#6769CB" transform="translate(46,158)"/>
<path d="M0 0 C0.99 0 1.98 0 3 0 C2.71926927 2.14729141 2.42511501 4.29283193 2.125 6.4375 C1.88136719 8.22994141 1.88136719 8.22994141 1.6328125 10.05859375 C1.31957031 11.51458984 1.31957031 11.51458984 1 13 C0.01 13.495 0.01 13.495 -1 14 C-1.08333357 9.1666528 -0.95261487 4.76307437 0 0 Z " fill="#ACACAC" transform="translate(270,129)"/>
<path d="M0 0 C1.98 0.495 1.98 0.495 4 1 C4 1.99 4 2.98 4 4 C3.34 4 2.68 4 2 4 C2 6.64 2 9.28 2 12 C1.01 12 0.02 12 -1 12 C-0.67 8.04 -0.34 4.08 0 0 Z " fill="#A6A6A6" transform="translate(273,114)"/>
<path d="M0 0 C0.33 0.99 0.66 1.98 1 3 C-1.15859924 6.83750975 -3.28595371 9.61239881 -7 12 C-7 10.68 -7 9.36 -7 8 C-6.34 8 -5.68 8 -5 8 C-4.9175 7.4225 -4.835 6.845 -4.75 6.25 C-3.79468987 3.3840696 -2.21530827 2.0009236 0 0 Z " fill="#8F9797" transform="translate(254,165)"/>
<path d="M0 0 C0.33 0 0.66 0 1 0 C1.07654536 4.51617599 1.10228696 8.59085217 0 13 C-1.32 13 -2.64 13 -4 13 C-4 12.34 -4 11.68 -4 11 C-3.34 11 -2.68 11 -2 11 C-2 8.36 -2 5.72 -2 3 C-1.34 3 -0.68 3 0 3 C0 2.01 0 1.02 0 0 Z " fill="#878DD7" transform="translate(38,184)"/>
<path d="M0 0 C2.97 0.495 2.97 0.495 6 1 C5.01 1.495 5.01 1.495 4 2 C4.061875 3.423125 4.061875 3.423125 4.125 4.875 C4 8 4 8 2 10 C2 8.68 2 7.36 2 6 C1.34 6 0.68 6 0 6 C0 4.02 0 2.04 0 0 Z " fill="#873939" transform="translate(206,76)"/>
<path d="M0 0 C-1.00976646 3.63515926 -1.94643718 4.95669389 -4.9375 7.375 C-6.4534375 8.179375 -6.4534375 8.179375 -8 9 C-8.99 8.67 -9.98 8.34 -11 8 C-9.625 6.5 -9.625 6.5 -8 5 C-7.34 5 -6.68 5 -6 5 C-6 4.34 -6 3.68 -6 3 C-2.53846154 0 -2.53846154 0 0 0 Z " fill="#909999" transform="translate(246,177)"/>
<path d="M0 0 C0.33 0 0.66 0 1 0 C1 3.3 1 6.6 1 10 C0.34 10 -0.32 10 -1 10 C-1 11.65 -1 13.3 -1 15 C-1.33 15 -1.66 15 -2 15 C-2.66 12.36 -3.32 9.72 -4 7 C-3.01 7 -2.02 7 -1 7 C-0.67 4.69 -0.34 2.38 0 0 Z " fill="#3C3DBD" transform="translate(26,35)"/>
<path d="M0 0 C0.99 0 1.98 0 3 0 C2 8.57142857 2 8.57142857 1 12 C0.34 12 -0.32 12 -1 12 C-0.67 8.04 -0.34 4.08 0 0 Z " fill="#A4A4A4" transform="translate(124,114)"/>
<path d="M0 0 C0.66 0 1.32 0 2 0 C2.26252625 4.33168317 1.29243536 7.8803623 0 12 C-0.99 12 -1.98 12 -3 12 C-2.69230293 10.18667846 -2.37870936 8.37435655 -2.0625 6.5625 C-1.80146484 5.04849609 -1.80146484 5.04849609 -1.53515625 3.50390625 C-1 1 -1 1 0 0 Z " fill="#999ADA" transform="translate(20,55)"/>
<path d="M0 0 C0 0.66 0 1.32 0 2 C-2 3.625 -2 3.625 -4 5 C-3.34 5.66 -2.68 6.32 -2 7 C-4.375 7.625 -4.375 7.625 -7 8 C-7.66 7.34 -8.32 6.68 -9 6 C-8.01 6 -7.02 6 -6 6 C-6 5.01 -6 4.02 -6 3 C-5.34 3 -4.68 3 -4 3 C-4 2.34 -4 1.68 -4 1 C-2 0 -2 0 0 0 Z " fill="#887B7B" transform="translate(240,180)"/>
<path d="M0 0 C0.33 0 0.66 0 1 0 C1.33 3.3 1.66 6.6 2 10 C1.01 10 0.02 10 -1 10 C-1 11.98 -1 13.96 -1 16 C-1.33 16 -1.66 16 -2 16 C-2.20674944 10.21101581 -1.59162079 5.57067277 0 0 Z " fill="#979797" transform="translate(113,164)"/>
<path d="M0 0 C0.5625 1.9375 0.5625 1.9375 1 4 C0.67 4.33 0.34 4.66 0 5 C-0.23075082 6.34747084 -0.41153063 7.70377565 -0.5625 9.0625 C-0.7790625 11.0115625 -0.7790625 11.0115625 -1 13 C-1.99 13 -2.98 13 -4 13 C-4 12.01 -4 11.02 -4 10 C-3.34 10 -2.68 10 -2 10 C-2 7.03 -2 4.06 -2 1 C-1.34 0.67 -0.68 0.34 0 0 Z " fill="#A4A5DE" transform="translate(57,100)"/>
<path d="M0 0 C0.33 0 0.66 0 1 0 C0.67 3.63 0.34 7.26 0 11 C-0.99 10.67 -1.98 10.34 -3 10 C-3 8.02 -3 6.04 -3 4 C-2.34 3.67 -1.68 3.34 -1 3 C-0.67 2.01 -0.34 1.02 0 0 Z " fill="#8A8DD8" transform="translate(62,76)"/>
<path d="M0 0 C0.66 0.33 1.32 0.66 2 1 C2 4.3 2 7.6 2 11 C0.68 11.33 -0.64 11.66 -2 12 C-1.34 8.04 -0.68 4.08 0 0 Z " fill="#660404" transform="translate(219,39)"/>
<path d="M0 0 C1.98 0 3.96 0 6 0 C6.80967438 2.91482778 7.21845993 4.46113217 6.0625 7.3125 C5.5365625 8.1478125 5.5365625 8.1478125 5 9 C5 7.02 5 5.04 5 3 C3.35 3 1.7 3 0 3 C0 2.01 0 1.02 0 0 Z " fill="#9DA0A0" transform="translate(285,37)"/>
<path d="M0 0 C1.20272819 2.40545638 1.10071472 3.94996953 1.0625 6.625 C1.05347656 7.44226563 1.04445312 8.25953125 1.03515625 9.1015625 C1.02355469 9.72804687 1.01195312 10.35453125 1 11 C1.66 11.33 2.32 11.66 3 12 C0.69 12 -1.62 12 -4 12 C-3.67 11.01 -3.34 10.02 -3 9 C-2.34 9.33 -1.68 9.66 -1 10 C-1.01160156 9.36191406 -1.02320313 8.72382813 -1.03515625 8.06640625 C-1.04869141 6.82697266 -1.04869141 6.82697266 -1.0625 5.5625 C-1.07410156 4.73878906 -1.08570313 3.91507813 -1.09765625 3.06640625 C-1 1 -1 1 0 0 Z " fill="#711A1A" transform="translate(134,180)"/>
<path d="M0 0 C0.99 0.33 1.98 0.66 3 1 C2.34 3.64 1.68 6.28 1 9 C0.01 9 -0.98 9 -2 9 C-1.125 2.25 -1.125 2.25 0 0 Z " fill="#8D8D8C" transform="translate(131,75)"/>
<path d="M0 0 C0.33 0 0.66 0 1 0 C1.0270043 1.45823212 1.04639787 2.91660675 1.0625 4.375 C1.07410156 5.18710938 1.08570313 5.99921875 1.09765625 6.8359375 C1 9 1 9 0 11 C-0.99 11 -1.98 11 -3 11 C-3 10.01 -3 9.02 -3 8 C-2.34 8 -1.68 8 -1 8 C-1.020625 6.865625 -1.04125 5.73125 -1.0625 4.5625 C-1 1 -1 1 0 0 Z " fill="#0103B7" transform="translate(174,60)"/>
<path d="M0 0 C1.32 0.33 2.64 0.66 4 1 C4 1.99 4 2.98 4 4 C3.34 4 2.68 4 2 4 C2 5.65 2 7.3 2 9 C1.34 9 0.68 9 0 9 C0 6.03 0 3.06 0 0 Z " fill="#AAAAAA" transform="translate(187,37)"/>
<path d="M0 0 C0.33 0 0.66 0 1 0 C1.4726477 8.19256018 1.4726477 8.19256018 -0.5 11.5625 C-0.995 12.036875 -1.49 12.51125 -2 13 C-2.19294408 8.17639811 -1.75747614 4.50353262 0 0 Z " fill="#9B9A8A" transform="translate(115,135)"/>
<path d="M0 0 C1.32 0 2.64 0 4 0 C3.67 3.63 3.34 7.26 3 11 C2.67 11 2.34 11 2 11 C2 9.02 2 7.04 2 5 C1.34 5 0.68 5 0 5 C0 3.35 0 1.7 0 0 Z " fill="#8E4C4C" transform="translate(134,163)"/>
<path d="M0 0 C0.33 0 0.66 0 1 0 C1.2493357 1.60115576 1.47378648 3.20620159 1.6875 4.8125 C1.87892578 6.15248047 1.87892578 6.15248047 2.07421875 7.51953125 C2 10 2 10 -1 13 C-0.67 8.71 -0.34 4.42 0 0 Z " fill="#A8A8A8" transform="translate(277,98)"/>
<path d="M0 0 C0.33 0 0.66 0 1 0 C1.125 7.625 1.125 7.625 0 11 C-0.66 11 -1.32 11 -2 11 C-1.85957123 9.35369672 -1.71250671 7.70795821 -1.5625 6.0625 C-1.48128906 5.14597656 -1.40007812 4.22945313 -1.31640625 3.28515625 C-1 1 -1 1 0 0 Z " fill="#969689" transform="translate(179,61)"/>
<path d="M0 0 C1.20220203 3.53094302 0.79532349 6.12898982 0.0625 9.75 C-0.13214844 10.73484375 -0.32679687 11.7196875 -0.52734375 12.734375 C-0.68332031 13.48203125 -0.83929688 14.2296875 -1 15 C-1.33 15 -1.66 15 -2 15 C-2.05406122 13.06280622 -2.09282025 11.12518079 -2.125 9.1875 C-2.14820312 8.10855469 -2.17140625 7.02960938 -2.1953125 5.91796875 C-2 3 -2 3 0 0 Z " fill="#2328AC" transform="translate(110,144)"/>
<path d="M0 0 C2.78637633 4.1795645 1.79562512 6.14668677 1 11 C0.01 11 -0.98 11 -2 11 C-1.34 7.37 -0.68 3.74 0 0 Z " fill="#6A0505" transform="translate(263,110)"/>
<path d="M0 0 C2 2 2 2 2.125 5.125 C2.08375 6.07375 2.0425 7.0225 2 8 C0.68 8 -0.64 8 -2 8 C-1.47731534 5.23723823 -0.89130413 2.6739124 0 0 Z " fill="#9F9FA0" transform="translate(183,59)"/>
<path d="M0 0 C0.33 0 0.66 0 1 0 C0.67 3.96 0.34 7.92 0 12 C-0.33 12 -0.66 12 -1 12 C-1.22162329 10.37675914 -1.42689803 8.751279 -1.625 7.125 C-1.74101562 6.22007813 -1.85703125 5.31515625 -1.9765625 4.3828125 C-1.98429688 3.59648438 -1.99203125 2.81015625 -2 2 C-1.34 1.34 -0.68 0.68 0 0 Z " fill="#AB7F7F" transform="translate(217,40)"/>
<path d="M0 0 C0.33 1.32 0.66 2.64 1 4 C0.34 4 -0.32 4 -1 4 C-1 6.64 -1 9.28 -1 12 C-1.99 12.495 -1.99 12.495 -3 13 C-3 9.04 -3 5.08 -3 1 C-2.01 1.33 -1.02 1.66 0 2 C0 1.34 0 0.68 0 0 Z " fill="#7C2A2A" transform="translate(220,35)"/>
<path d="M0 0 C0.99 0 1.98 0 3 0 C2.67 3.63 2.34 7.26 2 11 C1.67 11 1.34 11 1 11 C0.67 7.37 0.34 3.74 0 0 Z " fill="#7577D0" transform="translate(46,142)"/>
<path d="M0 0 C0.33 0 0.66 0 1 0 C1 2.64 1 5.28 1 8 C0.34 8 -0.32 8 -1 8 C-1 9.98 -1 11.96 -1 14 C-1.33 14 -1.66 14 -2 14 C-2.1799928 8.78020872 -1.97094808 4.92737019 0 0 Z " fill="#846969" transform="translate(267,108)"/>
<path d="M0 0 C0.99 0 1.98 0 3 0 C3 1.98 3 3.96 3 6 C2.01 6.33 1.02 6.66 0 7 C0 4.69 0 2.38 0 0 Z " fill="#858AD5" transform="translate(57,91)"/>
<path d="M0 0 C0.66 0.33 1.32 0.66 2 1 C1.34 3.31 0.68 5.62 0 8 C-0.66 8 -1.32 8 -2 8 C-2 5.69 -2 3.38 -2 1 C-1.34 0.67 -0.68 0.34 0 0 Z " fill="#8C8FD7" transform="translate(25,34)"/>
<path d="M0 0 C2.1519437 3.22791555 2.20086443 4.28400809 2 8 C1.34 8 0.68 8 0 8 C-0.33 8.66 -0.66 9.32 -1 10 C-0.67 6.7 -0.34 3.4 0 0 Z " fill="#A8A8A8" transform="translate(115,159)"/>
<path d="M0 0 C4.93928888 -0.3367697 5.78492722 -0.16130459 10 3 C6.7 2.67 3.4 2.34 0 2 C0 1.34 0 0.68 0 0 Z " fill="#B99797" transform="translate(146,155)"/>
<path d="M0 0 C0.99 0 1.98 0 3 0 C2.67 2.64 2.34 5.28 2 8 C1.01 7.67 0.02 7.34 -1 7 C-0.67 4.69 -0.34 2.38 0 0 Z " fill="#AEAFAF" transform="translate(181,67)"/>
<path d="M0 0 C1.98 0 3.96 0 6 0 C6 0.66 6 1.32 6 2 C5.34 2.66 4.68 3.32 4 4 C2.68 4 1.36 4 0 4 C0 2.68 0 1.36 0 0 Z " fill="#B1B1B1" transform="translate(205,198)"/>
<path d="M0 0 C0.66 0 1.32 0 2 0 C1.67 1.65 1.34 3.3 1 5 C0.01 5 -0.98 5 -2 5 C-2 5.66 -2 6.32 -2 7 C-2.66 6.67 -3.32 6.34 -4 6 C-3.67 5.01 -3.34 4.02 -3 3 C-2.01 3 -1.02 3 0 3 C0 2.01 0 1.02 0 0 Z " fill="#914E4E" transform="translate(185,150)"/>
<path d="M0 0 C1.98 0 3.96 0 6 0 C5.01 1.485 5.01 1.485 4 3 C1.375 3.1875 1.375 3.1875 -1 3 C-0.67 2.01 -0.34 1.02 0 0 Z " fill="#AFAEAE" transform="translate(216,196)"/>
<path d="M0 0 C-0.33 0.99 -0.66 1.98 -1 3 C-1 2.34 -1 1.68 -1 1 C-2.32 1 -3.64 1 -5 1 C-5 1.66 -5 2.32 -5 3 C-5.99 3 -6.98 3 -8 3 C-7.67 2.01 -7.34 1.02 -7 0 C-4.05610218 -1.17755913 -3.10046087 -1.03348696 0 0 Z " fill="#9D9D9D" transform="translate(237,192)"/>
<path d="M0 0 C0 0.66 0 1.32 0 2 C-2.31 2.66 -4.62 3.32 -7 4 C-6.67 3.01 -6.34 2.02 -6 1 C-4 0 -4 0 0 0 Z " fill="#8F9595" transform="translate(233,187)"/>
<path d="M0 0 C1.65 0 3.3 0 5 0 C5 0.66 5 1.32 5 2 C6.65 2 8.3 2 10 2 C10 2.33 10 2.66 10 3 C3.375 3.125 3.375 3.125 0 2 C0 1.34 0 0.68 0 0 Z " fill="#955858" transform="translate(141,155)"/>
<path d="M0 0 C0.33 0 0.66 0 1 0 C1.4726477 8.19256018 1.4726477 8.19256018 -0.5 11.5625 C-0.995 12.036875 -1.49 12.51125 -2 13 C-2.042721 11.33388095 -2.04063832 9.66617115 -2 8 C-1.67 7.67 -1.34 7.34 -1 7 C-0.63239269 4.67182036 -0.29758419 2.3381615 0 0 Z " fill="#5B0101" transform="translate(202,118)"/>
<path d="M0 0 C1.32 0 2.64 0 4 0 C3.6875 1.9375 3.6875 1.9375 3 4 C2.01 4.33 1.02 4.66 0 5 C0 3.35 0 1.7 0 0 Z " fill="#B1B1B1" transform="translate(130,89)"/>
<path d="M0 0 C0.99 0 1.98 0 3 0 C3.125 2.875 3.125 2.875 3 6 C2.34 6.66 1.68 7.32 1 8 C0.67 5.36 0.34 2.72 0 0 Z " fill="#8F4D4D" transform="translate(211,61)"/>
<path d="M0 0 C1.32 0 2.64 0 4 0 C4 0.99 4 1.98 4 3 C3.01 3 2.02 3 1 3 C1 4.65 1 6.3 1 8 C0.67 8 0.34 8 0 8 C0 5.36 0 2.72 0 0 Z " fill="#97978D" transform="translate(183,39)"/>
<path d="" fill="#A4A5A5" transform="translate(0,0)"/>
<path d="" fill="#CEB7B7" transform="translate(0,0)"/>
</svg>
